<?xml version="1.0" encoding="utf-8"?>
<!DOCTYPE svg PUBLIC "-//W3C//DTD SVG 1.1//EN" "http://www.w3.org/Graphics/SVG/1.1/DTD/svg11.dtd" [
<!ENTITY ns_svg "http://www.w3.org/2000/svg">
<!ENTITY ns_xlink "http://www.w3.org/1999/xlink">
]>
<svg  version="1.1" id="Layer_1" xmlns="&ns_svg;" xmlns:xlink="&ns_xlink;" width="262.341" height="165.153"
viewBox="0 0 262.341 165.153" overflow="visible" enable-background="new 0 0 262.341 165.153" xml:space="preserve">
<g id="g13780">
<g id="g7759" transform="matrix(0.756768,0,0,0.756768,113.894,51.2443)">
<path id="path7774" fill="#AECADF" d="M18.075,114.133c-9.842-0.672-16.083-2.945-20.739-7.552
c-1.906-1.887-2.673-2.916-3.655-4.909c-3.274-6.648-2.923-12.035,2.196-33.686c4.196-17.741,5.119-21.555,5.247-21.685
c0.075-0.075,5.209-0.101,11.41-0.058l11.274,0.077l-1.55,6.975c-0.852,3.835-2.491,11.113-3.642,16.174
c-1.15,5.061-2.447,11.002-2.88,13.206c-0.801,4.067-1.272,9.973-0.91,11.413c0.3,1.198,2.391,3.285,3.969,3.963
c0.771,0.332,2.531,0.832,3.909,1.111c5.068,1.027,9.334,0.036,11.287-2.62c1.98-2.694,5.56-16.09,13.121-49.109l0.289-1.262
h10.776h10.776l-1.151,5.515c-2.583,12.373-7.201,32.488-8.464,36.86c-2.525,8.741-4.546,12.978-7.909,16.574
c-5.616,6.001-13.227,8.699-25.742,9.121C23.486,114.318,20.059,114.269,18.075,114.133z M-56.964,113.829
c-8.125-0.667-18.666-2.225-20.041-2.96c-0.486-0.261-0.499-0.41-0.145-1.698c2-7.288,4.315-15.32,4.457-15.462
c0.096-0.095,0.47,0.01,0.83,0.239c5.889,3.719,10.311,4.964,18.673,5.259c5.226,0.183,7.608-0.076,9.894-1.076
c2.787-1.219,4.58-3.86,4.156-6.119c-0.411-2.191-3.067-3.977-11.527-7.745c-7.386-3.291-10.254-5.051-13.43-8.243
c-4.32-4.341-5.513-9.451-3.642-15.596c3.238-10.638,15.177-16.923,32.149-16.923c7.201,0,12.973,1.084,22.358,4.198l4.557,1.511
l-0.186,0.929c-0.486,2.432-3.853,14.137-4.066,14.137c-0.134,0-1.238-0.649-2.456-1.445c-3.031-1.978-6.677-3.456-11.598-4.698
c-3.449-0.872-4.5-1.022-6.232-0.897c-7.631,0.552-11.115,5.14-6.875,9.047c1.609,1.485,4.268,2.968,8.887,4.96
c9.065,3.91,13.348,6.757,16.411,10.915c3.703,5.025,3.504,12.47-0.494,18.447c-4.448,6.651-12.75,11.045-24.168,12.797
C-43.099,113.96-52.556,114.193-56.964,113.829z M-110.237,113.242c-17.769-2.417-28.352-13.147-29.003-29.41
c-0.756-18.888,11.286-34.465,30.394-39.312c4.593-1.164,9.233-1.672,15.081-1.652c8.657,0.03,15.355,1.309,21.104,4.027
l2.703,1.279l-2.005,7.774c-1.103,4.277-2.076,7.846-2.163,7.932s-0.77-0.262-1.516-0.776c-6.419-4.416-16.158-5.691-23.437-3.067
c-3.413,1.231-5.209,2.403-8.056,5.259c-2.32,2.325-2.896,3.118-4.224,5.808c-2.125,4.306-2.853,7.486-2.647,11.574
c0.266,5.286,1.874,8.649,5.55,11.614c6.232,5.026,17.253,5.015,27.283-0.028c1.351-0.679,2.492-1.192,2.534-1.141
c0.317,0.378-4.12,16.809-4.683,17.343c-0.579,0.55-4.234,1.634-7.595,2.248C-94.486,113.369-106.824,113.705-110.237,113.242z
M143.903,112.124c-0.515-0.77-3.235-5.006-6.051-9.414c-2.811-4.407-7.492-11.712-10.398-16.234l-5.288-8.22l3.293-5.136
c1.81-2.823,4.7-7.337,6.419-10.031c1.719-2.692,4.283-6.699,5.696-8.903c1.414-2.204,3.612-5.642,4.886-7.642
c1.274-2,2.399-3.636,2.501-3.635s1.512,2.105,3.136,4.675c1.622,2.571,4.217,6.677,5.763,9.125
c10.738,16.991,13.396,21.234,13.396,21.372c0,0.141-21.94,34.924-22.22,35.229C144.927,113.429,144.418,112.893,143.903,112.124z
"/>
<path id="path7772" fill="#8DB6D3" d="M-54.293,113.941c-8.547-0.515-19.888-2.054-22.53-3.06l-0.73-0.277l0.722-2.314
c0.397-1.272,1.479-5.053,2.403-8.398c0.925-3.347,1.719-6.132,1.765-6.19c0.046-0.058,0.86,0.36,1.807,0.93
c4.375,2.634,7.216,3.617,13.002,4.498c2.214,0.337,2.443,0.417,1.335,0.467c-0.734,0.036-1.669,0.036-2.077,0
c-0.408-0.034-0.661,0.023-0.56,0.125c0.397,0.406,3.885,0.757,7.831,0.79c6.186,0.05,9.345-0.861,11.575-3.338
c0.668-0.743,0.705-0.834,0.148-0.359c-0.929,0.792-2.257,1.453-3.413,1.698c-0.845,0.181-0.834,0.16,0.217-0.408
c2.648-1.427,4.082-3.833,3.653-6.124c-0.443-2.372-2.654-3.794-13.706-8.805c-9.796-4.443-14.671-9.28-15.512-15.391
c-0.703-5.117,1.399-11.075,5.244-14.856c1.678-1.649,1.625-1.089-0.105,1.12c-0.505,0.647-1.154,1.576-1.441,2.066l-0.522,0.889
l0.694-0.889c3.576-4.588,7.712-7.408,13.614-9.282c4.187-1.332,7.861-1.884,13.652-2.056c5.004-0.148,5.876-0.084,12.613,0.946
c0.49,0.075-0.111-0.124-1.335-0.441c-1.225-0.317-2.997-0.666-3.939-0.773s-1.796-0.329-1.897-0.492
c-0.386-0.625,6.807,0.434,11.771,1.735c4.204,1.099,11.278,3.433,11.278,3.719c0,0.137-0.748,2.958-1.663,6.266
c-0.914,3.309-1.803,6.55-1.974,7.203c-0.17,0.653-0.354,1.241-0.408,1.306c-0.054,0.065-1.023-0.503-2.153-1.262
c-3.358-2.253-7.172-3.789-12.78-5.144c-2.546-0.614-3.605-0.728-5.655-0.607c-5.285,0.315-8.607,2.56-8.607,5.817
c0,2.571,2.927,4.849,10.536,8.206c8.182,3.609,11.757,5.748,14.839,8.88c3.268,3.318,4.482,6.593,4.229,11.405
c-0.391,7.443-4.999,13.539-13.43,17.769C-32.852,112.851-43.55,114.588-54.293,113.941z M-23.601,76.042
c-0.068-0.061-0.457-0.268-0.866-0.462c-0.699-0.334-0.709-0.328-0.166,0.107C-24.16,76.065-23.194,76.398-23.601,76.042z
M-27.286,74.072c-0.101-0.163-0.343-0.296-0.537-0.293c-0.213,0.003-0.176,0.12,0.092,0.293
C-27.161,74.439-27.058,74.439-27.286,74.072z M-29.957,72.873c-0.979-0.467-1.914-0.847-2.078-0.841
c-0.381,0.01,3.166,1.698,3.562,1.696C-28.31,73.724-28.977,73.34-29.957,72.873z M15.748,113.94
c-9.983-1.226-16.23-4.129-20.21-9.388c-2.822-3.727-3.794-6.923-3.767-12.377c0.026-5.153,0.963-10.365,4.704-26.147
c1.716-7.248,3.473-14.679,3.903-16.515l0.782-3.34h11.226c7.121,0,11.226,0.106,11.226,0.29c0,0.357-1.836,8.727-5.168,23.549
c-2.934,13.057-3.769,17.707-3.82,21.261c-0.032,2.283,0.053,2.724,0.749,3.911c1.574,2.687,4.964,4.102,10.389,4.338
c2.885,0.126,3.724,0.061,4.869-0.376c1.7-0.65,3.511-2.247,4.298-3.789c1.32-2.586,5.372-17.929,9.736-36.87
c1.319-5.713,2.503-10.788,2.638-11.276l0.241-0.892l10.588-0.077c9.228-0.068,10.589-0.022,10.589,0.365
c0,1.365-7.5,34.948-9.069,40.611c-1.401,5.057-2.911,9.341-4.195,11.907c-4.237,8.463-11.182,12.926-22.656,14.556
C29.956,114.089,18.378,114.262,15.748,113.94z M30.587,100.189c0.543-0.235,0.53-0.257-0.148-0.272
c-0.408-0.008-0.942,0.114-1.187,0.272c-0.368,0.237-0.342,0.284,0.148,0.271C29.727,100.451,30.261,100.328,30.587,100.189z
M1.533,48.925c-0.099-0.098-0.169,0.077-0.155,0.39c0.014,0.346,0.084,0.417,0.179,0.181C1.642,49.28,1.632,49.023,1.533,48.925z
M-109.05,113.356c-7.118-0.888-12.547-2.733-17.467-5.939c-10.031-6.537-14.554-18.642-12.044-32.233
c0.811-4.393,2.642-9.251,4.04-10.724l0.597-0.63l-0.499,1.187c-1.458,3.469-1.207,3.433,0.557-0.08
c3.32-6.611,9.403-12.553,16.466-16.084c2.629-1.314,8.424-3.207,11.857-3.871c4.209-0.817,10.281-1.258,14.832-1.077
c2.193,0.087,4.062,0.232,4.152,0.322c0.09,0.09,0.375,0.155,0.634,0.143c0.346-0.015,0.314-0.088-0.124-0.279
c-0.909-0.393,1.92-0.051,5.342,0.648c1.632,0.333,3.275,0.661,3.652,0.73c1.935,0.356,6.883,2.578,6.883,3.091
c0,0.365-3.846,15.209-3.973,15.337c-0.05,0.049-0.97-0.501-2.045-1.219c-3.83-2.568-9.101-4.04-14.467-4.04
c-6.852,0-12.035,2.022-16.43,6.413c-6.725,6.718-8.979,17.586-5.156,24.867c1.898,3.613,5.993,6.63,10.467,7.712l1.777,0.431
l-1.486,0.023c-0.817,0.014-1.943-0.106-2.502-0.266c-2.001-0.573-1.225-0.028,0.915,0.644c1.881,0.591,2.798,0.685,6.635,0.679
c5.719-0.009,9.2-0.742,13.972-2.945c1.619-0.747,2.265-1.235,2.816-2.125c0.479-0.776,0.745-0.999,0.805-0.681
c0.108,0.563-2.84,12.267-3.84,15.248l-0.694,2.07l-2.226,0.693c-4.449,1.385-8.553,1.906-15.73,1.999
C-105.006,113.447-108.478,113.426-109.05,113.356z M143.721,111.689c-0.578-0.857-3.482-5.366-6.45-10.016
c-2.971-4.653-6.13-9.594-7.02-10.982c-0.893-1.387-3.035-4.723-4.76-7.414l-3.138-4.889l0.592-1.045
c0.325-0.576,2.263-3.649,4.304-6.833c4.159-6.486,15.6-24.403,16.812-26.329c0.434-0.688,0.857-1.256,0.941-1.261
c0.084-0.006,0.573,0.69,1.087,1.547c0.514,0.857,5.482,8.762,11.041,17.568l10.104,16.009l-0.64,1.056
c-0.985,1.621-8.092,12.891-10.027,15.894c-3.399,5.277-11.038,17.479-11.187,17.861
C145.123,113.523,144.809,113.301,143.721,111.689z M-99.632,98.213c0.201-0.081,0.601-0.086,0.89-0.012
c0.288,0.076,0.124,0.142-0.366,0.148C-99.597,98.356-99.833,98.294-99.632,98.213z"/>
<path id="path7770" fill="#62A5C8" d="M-53.7,113.947c-9.355-0.49-23.594-2.562-23.594-3.43c0-0.169,0.725-2.862,1.609-5.986
c0.885-3.123,1.91-6.814,2.278-8.201c0.368-1.389,0.708-2.574,0.756-2.638c0.048-0.062,0.459,0.129,0.912,0.428
c1.572,1.032,4.395,2.562,6.019,3.262c0.928,0.4,1.377,0.714,1.039,0.728c-0.336,0.013,0.114,0.326,1.039,0.723
c2.609,1.118,6.964,1.745,12.317,1.774c4.124,0.022,5.024-0.061,6.842-0.634c2.445-0.769,4.267-1.912,5.318-3.337
c0.865-1.172,0.99-1.792,0.231-1.141c-1.093,0.939-1.282,0.87-0.683-0.248c0.334-0.625,0.608-1.645,0.608-2.269
c0-2.578-1.582-4.034-7.408-6.816c-2.373-1.133-6.318-3.043-8.767-4.242c-6.715-3.292-10.235-6.386-12.263-10.782
c-1.449-3.141-1.205-8.679,0.543-12.308l0.594-1.234l-0.15,1.187c-0.083,0.653-0.219,1.521-0.304,1.93
c-0.087,0.416,0.026,0.281,0.258-0.306c3.195-8.103,10.203-12.946,21.709-14.999c2.171-0.387,4.562-0.532,8.903-0.542
c6.41-0.013,8.419,0.241,15.106,1.915c3.778,0.946,4.898,1.019,1.958,0.13c-0.983-0.298-1.95-0.739-2.152-0.981
c-0.306-0.369-0.27-0.412,0.226-0.263c0.325,0.097,1.86,0.523,3.411,0.946c3.805,1.039,8.272,2.519,8.445,2.799
c0.187,0.303-3.579,14.16-3.978,14.632c-0.1,0.119-0.846-0.258-1.658-0.841c-3.158-2.266-7.93-4.227-13.286-5.461
c-7.443-1.716-14.152,0.719-14.156,5.136c-0.003,2.941,2.603,4.941,11.849,9.091c2.192,0.985,4.093,1.959,4.225,2.167
c0.132,0.206,0.241,0.274,0.244,0.148c0.006-0.346,2.851,1.169,5.347,2.848c5.44,3.66,8.019,7.972,8.008,13.395
c-0.025,11.902-11.337,20.933-28.783,22.985C-44.104,113.87-50.808,114.1-53.7,113.947z M-20.905,77.618
c-0.408-0.328-1.677-1.147-2.82-1.821s-2.411-1.432-2.819-1.688c-0.408-0.253-0.876-0.488-1.039-0.524
c-0.163-0.035-1.365-0.521-2.671-1.079c-1.306-0.557-2.775-1.099-3.265-1.203c-0.984-0.209-0.447,0.07,5.788,3.007
c2.04,0.96,4.511,2.234,5.49,2.831C-20.259,78.347-19.786,78.516-20.905,77.618z M16.193,113.94
c-5.29-0.527-10.934-2.032-13.928-3.719c-5.109-2.876-8.783-7.479-9.962-12.479c-0.84-3.564-0.55-9.743,0.777-16.549
c0.672-3.442,6.78-29.336,7.999-33.908l0.297-1.112h11.142H23.66l-0.197,0.965c-0.109,0.529-1.598,7.241-3.307,14.912
c-5.01,22.477-6.076,28.384-5.591,31.001c0.704,3.809,3.678,5.686,10.533,6.644c2.47,0.347,2.728,0.435,2.078,0.721
c-0.675,0.297-0.614,0.328,0.675,0.345c3.23,0.043,6.712-2.038,8.047-4.807c1.48-3.073,4.846-15.52,8.841-32.697
c1.141-4.909,2.436-10.459,2.878-12.337l0.803-3.413l9.485-0.156l9.487-0.157l-9.64,0.008l-9.638,0.01l-0.667,2.818
c-0.366,1.551-1.543,6.625-2.617,11.278C41.39,76.207,37.2,91.984,35.842,95.146c-0.649,1.514-2.159,3.262-2.817,3.262
c-0.284,0-0.071-0.397,0.596-1.112c0.57-0.613,1.298-1.712,1.618-2.445c1.407-3.225,4.999-16.909,9-34.283
c1.24-5.386,2.537-10.828,2.88-12.094l0.626-2.3h10.489c8.194,0,10.49,0.081,10.489,0.372c-0.003,1.337-7.535,34.855-9.22,41.029
c-2.136,7.828-3.967,12.149-6.687,15.791c-4.309,5.768-10.853,9.061-20.526,10.329C29.241,114.096,19.284,114.246,16.193,113.94z
M12.195,47.356l10.082-0.155L11.97,47.132L1.662,47.064l-0.155,0.668c-0.085,0.366-0.497,2.137-0.916,3.932
c-0.984,4.221-1.913,8.727-1.889,9.158c0.011,0.186,0.783-2.733,1.715-6.487l1.696-6.826L12.195,47.356z M-108.308,113.351
c-7.845-0.908-13.279-2.674-18.082-5.869c-7.463-4.966-11.606-12.12-12.667-21.872c-0.547-5.026,0.45-12.413,2.148-15.92
c0.796-1.647,0.978-1.469,0.41,0.4c-0.734,2.421-0.48,2.204,0.552-0.47c4.751-12.317,13.797-20.279,26.994-23.761
c4.729-1.248,9.202-1.764,15.276-1.761c7.192,0,11.527,0.666,17.718,2.714c2.612,0.866,4.982,1.545,5.268,1.509
c0.286-0.034,0.519,0.019,0.519,0.119c0,0.232-3.895,15.37-3.978,15.459c-0.034,0.036-0.779-0.418-1.657-1.009
c-2.123-1.43-5.319-2.87-7.868-3.544c-2.933-0.777-11.026-0.792-13.801-0.028c-9.667,2.663-16.61,12.055-16.618,22.482
c-0.004,4.883,1.334,8.439,4.307,11.451c1.103,1.118,2.592,2.229,3.863,2.88c2.24,1.148,2.232,1.334-0.024,0.656
c-2.095-0.631-1.998-0.305,0.219,0.73c3.12,1.461,5.658,1.863,10.626,1.68c4.835-0.175,6.72-0.563,11.153-2.297
c2.547-0.996,3.233-1.404,4.009-2.385c0.515-0.648,0.981-1.137,1.035-1.083c0.23,0.23-1.474,7.043-3.892,15.56l-0.436,1.534
l-2.299,0.748c-4.771,1.552-10.531,2.289-17.349,2.223C-105.375,113.475-107.818,113.408-108.308,113.351z M141.868,108.744
c-1.598-2.501-3.642-5.684-4.542-7.072c-0.898-1.389-2.525-3.926-3.616-5.639c-1.089-1.714-3.946-6.181-6.349-9.927
c-2.403-3.746-4.498-7.057-4.66-7.355c-0.236-0.443,0.293-1.457,2.798-5.358c4.629-7.21,16.245-25.404,18.279-28.628
c0.541-0.857,1.09-1.558,1.223-1.558c0.129,0,1.6,2.17,3.265,4.823c7.157,11.393,11.126,17.687,15.679,24.855
c1.711,2.693,3.11,5.03,3.11,5.194c-0.003,0.266-4.4,7.335-9.877,15.878c-1.099,1.714-4.173,6.589-6.832,10.832
c-2.657,4.246-4.997,7.895-5.2,8.112C144.847,113.222,144.234,112.443,141.868,108.744z M126.633,73.626
c0.292-0.594,0.292-0.594-0.191,0c-0.266,0.326-0.614,0.862-0.774,1.187c-0.292,0.594-0.292,0.594,0.191,0
C126.126,74.488,126.473,73.953,126.633,73.626z M128.711,70.362c0.292-0.594,0.292-0.594-0.191,0
c-0.266,0.326-0.614,0.861-0.776,1.187c-0.29,0.594-0.29,0.594,0.192,0C128.203,71.222,128.552,70.688,128.711,70.362z
M133.421,63.09c0.175-0.326,0.253-0.592,0.17-0.592c-0.083,0-0.292,0.266-0.466,0.592s-0.252,0.595-0.169,0.595
C133.039,63.685,133.248,63.416,133.421,63.09z M134.944,60.567c0.292-0.594,0.292-0.594-0.191,0
c-0.266,0.328-0.616,0.862-0.776,1.187c-0.29,0.594-0.29,0.594,0.192,0C134.435,61.429,134.784,60.895,134.944,60.567z
M136.988,57.377c0.521-0.857,0.752-1.358,0.516-1.112c-0.534,0.554-1.809,2.67-1.609,2.67
C135.976,58.935,136.468,58.234,136.988,57.377z M140.093,52.574l0.502-0.91l-0.587,0.721c-0.323,0.399-0.813,1.133-1.088,1.634
l-0.502,0.91l0.588-0.723C139.327,53.809,139.816,53.075,140.093,52.574z M141.77,49.882c0.292-0.591,0.292-0.591-0.192,0
c-0.265,0.328-0.616,0.862-0.776,1.188c-0.29,0.594-0.29,0.594,0.194,0C141.26,50.744,141.61,50.21,141.77,49.882z
M144.116,46.308c0.359-0.581,0.6-1.107,0.539-1.169c-0.062-0.062-0.416,0.413-0.786,1.056
C143.034,47.647,143.231,47.739,144.116,46.308z"/>
<path id="path7768" fill="#1B86BA" d="M16.934,113.953c-9.632-0.992-14.959-3.052-19.468-7.523
c-2.939-2.916-4.365-5.422-5.186-9.113c-1.127-5.064,0.105-14.886,3.394-27.055c0.577-2.137,0.931-2.934,0.93-2.101
c0,0.552-0.697,4.169-1.475,7.657c-0.342,1.532-0.55,2.857-0.464,2.943c0.087,0.086,0.159,0.094,0.159,0.017
c0-0.263,4.153-17.852,5.824-24.665l1.656-6.752h10.014c9.648,0,10.034-0.021,10.553-0.595c0.297-0.328,0.583-0.554,0.636-0.499
c0.095,0.095-1.059,5.398-5.34,24.54c-3.493,15.61-4.269,20.839-3.462,23.285c0.819,2.482,3.579,4.389,7.572,5.23
c2.118,0.445,2.11,0.439,1.659,0.983c-0.299,0.361-0.065,0.457,1.523,0.627c3.493,0.374,6.856-0.656,8.98-2.751
c1.48-1.461,2.276-3.314,3.9-9.083c0.739-2.634,1.601-5.656,1.915-6.717c0.607-2.056,3.558-14.361,6.368-26.562
c0.941-4.08,1.827-7.652,1.973-7.939c0.243-0.477,1.005-0.519,9.557-0.519c8.925,0,9.314-0.023,9.831-0.595
c0.297-0.328,0.591-0.543,0.654-0.481c0.156,0.157-1.134,6.278-4.517,21.406c-5.271,23.574-6.884,28.899-10.407,34.342
c-3.931,6.079-10.102,9.669-19.564,11.38C31.563,113.882,19.808,114.251,16.934,113.953z M-57.41,113.643
c-9.774-0.969-17.25-2.049-19.125-2.764l-0.873-0.332l0.839-0.507c0.768-0.465,1.003-1.092,2.745-7.332
c1.634-5.85,1.861-6.953,1.592-7.735c-0.475-1.379-0.414-1.41,0.947-0.477c0.694,0.475,1.829,1.151,2.523,1.505
c1.361,0.689,1.614,0.96,0.668,0.714c-0.326-0.086-0.594-0.079-0.594,0.015c0,0.542,1.608,1.489,3.595,2.116
c4.146,1.31,7.403,1.741,13.322,1.765c4.884,0.021,5.722-0.05,7.586-0.636c3.847-1.21,6.084-3.505,6.236-6.397
c0.046-0.853,0.017-1.194-0.061-0.756c-0.079,0.437-0.336,0.954-0.571,1.15c-0.363,0.299-0.428,0.137-0.428-1.074
c0-2.674-1.967-4.369-8.607-7.416c-2.04-0.937-5.206-2.405-7.035-3.266c-9.119-4.282-13.739-9.81-13.739-16.432
c0-2.958,0.861-4.719,0.918-1.876l0.028,1.409l0.389-1.929c0.82-4.067,2.263-6.841,5.142-9.883
c4.042-4.271,10.476-7.097,18.749-8.23c3.299-0.452,11.755-0.467,14.394-0.026c4.263,0.715,9.213,1.902,13.671,3.279
c4.707,1.454,5.402,1.568,2.749,0.445c-2.078-0.877-1.29-1.217,1.023-0.441c1.016,0.342,1.995,0.719,2.174,0.839
c0.227,0.152-0.123,1.863-1.136,5.56c-0.805,2.938-1.66,6.077-1.899,6.974c-0.239,0.898-0.496,1.812-0.57,2.031
c-0.098,0.285-0.55,0.101-1.607-0.658c-6.41-4.606-17.127-7.243-22.559-5.553c-3.779,1.177-5.212,2.879-5.086,6.042
c0.045,1.107,2.036,3.229,4.151,4.421c2.849,1.608,2.989,1.737,1.646,1.53c-0.641-0.099-1.398-0.299-1.683-0.445
c-0.286-0.146-0.519-0.205-0.519-0.129c0,0.277,3.206,1.94,6.381,3.307c7.565,3.26,11.46,5.57,14.596,8.659
c2.073,2.044,2.173,1.965,0.334-0.263c-1.649-1.995-0.88-2.041,0.936-0.054c3.824,4.184,4.819,9.531,2.856,15.356
c-3.096,9.193-12.851,15.345-27.344,17.243C-43.772,113.799-54.242,113.955-57.41,113.643z M-109.041,113.225
c-15.414-1.745-25.659-9.625-29.097-22.387c-1.014-3.764-1.206-13.799-0.263-13.799c0.175,0,0.22,1.179,0.117,3.042
c-0.093,1.672-0.048,3.977,0.1,5.119c0.248,1.923,0.272,1.755,0.307-2.261c0.06-6.683,1.152-11.798,3.591-16.829
c5.668-11.694,15.863-18.767,30.727-21.321c4.693-0.807,14.863-0.726,19.846,0.157c3.69,0.656,8.629,2.16,10.92,3.328
c0.869,0.444,1.278,0.501,1.899,0.265c0.61-0.231,0.758-0.214,0.648,0.076c-0.079,0.208-0.979,3.648-2.002,7.648
c-1.023,3.999-1.902,7.321-1.956,7.381c-0.052,0.062-0.732-0.31-1.509-0.825c-2.265-1.501-5.082-2.716-8.11-3.498
c-2.312-0.599-3.54-0.73-6.826-0.733c-4.806-0.003-7.473,0.586-11.278,2.489c-3.565,1.782-7.297,5.527-9.254,9.285
c-2.113,4.057-2.978,7.303-3.005,11.275c-0.031,4.593,0.835,7.325,3.419,10.784c0.988,1.324,1.068,1.525,0.486,1.226
c-0.383-0.199-1.021-0.645-1.418-0.991l-0.721-0.632l0.652,0.947c1.71,2.475,5.308,4.745,9.154,5.773
c1.779,0.475,3.218,0.622,6.178,0.627c4.727,0.008,8.21-0.663,12.69-2.449c2.754-1.097,3.253-1.404,3.935-2.436
c0.429-0.649,0.828-1.133,0.884-1.076c0.143,0.142-1.425,6.675-2.647,11.037c-0.556,1.983-1.159,4.169-1.343,4.859
c-0.332,1.253-0.337,1.257-2.771,1.998C-91.515,113.079-102.412,113.975-109.041,113.225z M-137.361,89.288
c-0.099-0.099-0.168,0.076-0.156,0.388c0.014,0.346,0.085,0.416,0.18,0.181C-137.252,89.642-137.263,89.387-137.361,89.288z
M-137.643,87.643c-0.081-0.201-0.143,0.036-0.137,0.526c0.006,0.489,0.072,0.653,0.148,0.364
C-137.557,88.246-137.561,87.844-137.643,87.643z M144.207,112.28c-0.354-0.529-2.478-3.834-4.722-7.343
c-6.408-10.028-11.262-17.589-14.281-22.26c-2.678-4.14-2.755-4.306-2.047-4.395c0.778-0.098,1.121-0.564,5.49-7.476
c1.187-1.878,3.714-5.847,5.619-8.823c1.902-2.976,5.064-7.917,7.023-10.98c2.387-3.736,3.609-5.935,3.709-6.673
c0.166-1.234-0.992-2.942,12.02,17.72c2.569,4.08,5.793,9.18,7.158,11.33c1.37,2.151,2.568,4.117,2.663,4.367
c0.185,0.48-0.667,1.946-6.184,10.636c-1.839,2.896-6.126,9.673-9.529,15.063c-3.402,5.39-6.207,9.798-6.233,9.798
C144.869,113.244,144.56,112.809,144.207,112.28z"/>
<path id="path7766" fill="#0E6D9D" d="M16.934,113.953c-9.217-0.95-14.749-3.007-19.091-7.095
c-3.463-3.26-5.459-7.154-5.814-11.343c-0.181-2.146,0.233-1.959,0.683,0.307c1.071,5.389,3.921,9.281,9.235,12.61
c4.881,3.057,10.909,4.243,21.532,4.235c9.016-0.006,14.508-0.996,19.869-3.582c8.1-3.907,11.464-9.237,15.413-24.415
c0.586-2.251,2.332-9.729,3.879-16.62c4.689-20.886,4.591-20.487,5.265-21.208c0.341-0.366,0.674-0.614,0.734-0.554
c0.154,0.154-1.154,6.353-4.519,21.402c-5.271,23.574-6.884,28.899-10.407,34.342c-3.931,6.079-10.102,9.669-19.564,11.38
C31.563,113.882,19.808,114.251,16.934,113.953z M-57.41,113.643c-9.829-0.976-17.265-2.052-19.142-2.773l-0.89-0.342l0.811-0.428
c0.719-0.379,1.138-0.361,3.709,0.155c4.216,0.848,11.589,1.721,17.949,2.124c13.097,0.834,24.378-1.4,31.909-6.317
c5.677-3.706,8.682-8.319,9.568-14.688c0.333-2.394,0.24-3.507-0.483-5.803c-0.609-1.932-0.306-2.458,0.453-0.788
c2.676,5.881,0.662,13.969-4.791,19.237c-5.224,5.047-12.439,8.074-22.34,9.371C-43.772,113.799-54.242,113.955-57.41,113.643z
M-109.041,113.225c-8.772-0.994-15.982-4.011-21.133-8.842c-2.382-2.235-5.109-6.006-5.985-8.274
c-0.736-1.907-0.201-1.503,1.258,0.947c3.133,5.262,6.932,8.689,12.333,11.122c6.957,3.132,12.011,4.025,21.53,3.798
c6.638-0.157,9.894-0.564,14.097-1.761l2.374-0.677l0.766-2.374c0.422-1.306,1.281-4.377,1.909-6.826
c0.79-3.078,1.409-4.847,2.007-5.733c0.476-0.706,0.909-1.238,0.962-1.186c0.137,0.137-1.455,6.757-2.653,11.032
c-0.556,1.983-1.159,4.169-1.343,4.859c-0.332,1.253-0.337,1.257-2.771,1.998C-91.515,113.079-102.412,113.975-109.041,113.225z
M144.207,112.28c-0.354-0.529-2.478-3.834-4.722-7.343c-5.315-8.318-10.854-16.959-14.074-21.963
c-1.418-2.203-2.675-4.172-2.791-4.377c-0.147-0.256,0.021-0.37,0.539-0.37c0.64,0,1.108,0.548,3.06,3.578
c1.269,1.967,3.057,4.738,3.973,6.158c0.916,1.418,3.546,5.518,5.841,9.109c2.297,3.591,5.195,8.116,6.442,10.055
c1.265,1.972,2.374,3.412,2.514,3.266c0.139-0.145,1.684-2.533,3.436-5.309c3.971-6.288,6.962-11.02,12.008-18.993
c2.168-3.429,4.202-6.664,4.519-7.19l0.573-0.958l-2.503-3.938c-5.66-8.912-16.262-25.737-17.393-27.6
c-0.439-0.725-0.637-1.458-0.576-2.14c0.101-1.143-0.821-2.516,11.964,17.785c2.569,4.08,5.793,9.18,7.158,11.33
c1.37,2.151,2.568,4.117,2.663,4.367c0.185,0.48-0.667,1.946-6.184,10.636c-1.839,2.896-6.126,9.673-9.529,15.063
c-3.402,5.39-6.207,9.798-6.233,9.798C144.869,113.244,144.56,112.809,144.207,112.28z M16.934,98.658
c-0.326-0.181-1.167-0.878-1.867-1.549c-3.162-3.036-2.927-6.002,2.335-29.419c4.598-20.468,4.429-19.802,5.262-20.697
c0.416-0.448,0.797-0.772,0.847-0.721c0.091,0.09-1.099,5.555-5.345,24.535c-4.595,20.536-4.745,23.224-1.465,26.112
c0.745,0.656,1.486,1.192,1.646,1.192c0.161,0,0.125,0.2-0.078,0.444C17.836,99.079,17.72,99.089,16.934,98.658z M-72.248,94.253
c0-0.163,0.059-0.297,0.131-0.297s0.214,0.134,0.314,0.297c0.101,0.163,0.042,0.297-0.131,0.297S-72.248,94.415-72.248,94.253z
M-111.174,92.693c-1.192-1.005-2.24-2.902-3.284-5.94c-0.832-2.422-0.938-3.1-0.921-5.856c0.015-2.467,0.183-3.657,0.801-5.722
c2.683-8.943,8.363-14.785,16.719-17.199c2.002-0.578,2.969-0.666,7.209-0.645c5.85,0.027,8.039,0.506,12.613,2.763
c1.632,0.807,3.02,1.412,3.085,1.349c0.1-0.101,3.297-12.217,3.297-12.497c0-0.055,0.122-0.101,0.271-0.101
c0.149,0-0.51,3.058-1.463,6.798c-1.039,4.07-1.662,7.075-1.554,7.491c0.178,0.68,0.168,0.684-0.539,0.186
c-4.591-3.227-9.703-4.755-15.857-4.74c-4.649,0.013-7.389,0.63-11.13,2.5c-3.565,1.782-7.297,5.527-9.254,9.285
c-2.109,4.049-2.977,7.301-3.009,11.275c-0.035,4.451,0.914,7.411,3.545,11.055C-110.038,93.538-110.175,93.537-111.174,92.693z
M-39.553,90.723c-0.913-1.462-3.516-3.155-8.063-5.242c-8.39-3.849-10.464-4.897-12.566-6.352c-2.742-1.896-5.523-4.76-6.504-6.7
c-0.743-1.467-1.485-3.723-1.289-3.919c0.057-0.055,0.722,0.893,1.479,2.107c3.384,5.43,6.528,7.771,16.478,12.273
c7.694,3.482,10.428,5.342,11.33,7.714C-38.214,91.854-38.799,91.933-39.553,90.723z M-41.555,66.231
c-0.537-0.234-1.118-0.827-1.409-1.444c-1.474-3.105,0.614-6.512,5.059-8.255c1.434-0.563,2.3-0.675,5.277-0.688
c2.993-0.01,4.026,0.116,6.468,0.794c4.233,1.174,8.704,2.999,10.924,4.456l1.939,1.275l1.73-6.303
c1.124-4.093,1.886-6.361,2.174-6.472c0.244-0.093,0.473-0.133,0.51-0.089c0.036,0.044-0.596,2.485-1.403,5.424
s-1.663,6.077-1.902,6.974c-0.239,0.898-0.496,1.812-0.57,2.031c-0.098,0.285-0.55,0.101-1.607-0.658
c-3.225-2.316-8.907-4.652-13.75-5.653c-5.859-1.21-11.202-0.01-13.246,2.973c-0.856,1.249-0.906,3.436-0.103,4.54
c0.686,0.943,1.036,1.52,0.914,1.505C-40.6,66.634-41.053,66.449-41.555,66.231z"/>
<path id="path7764" fill="#154F69" d="M17.083,113.924c-5.622-0.461-11.014-1.83-14.676-3.729
c-2.909-1.507-6.804-5.19-7.996-7.558c-0.996-1.98-0.635-2.007,0.697-0.052c1.426,2.092,4.526,4.936,6.991,6.415
c2.501,1.501,5.511,2.529,9.493,3.243c4.153,0.746,17.669,0.769,21.817,0.039c7.895-1.39,12.919-3.816,16.941-8.179
c4.456-4.837,6.537-10.338,10.793-28.548c1.087-4.651,2.421-10.259,2.967-12.464c0.546-2.203,1.57-6.665,2.276-9.913
c1.087-5,1.773-7.073,2.199-6.646c0.245,0.244-6.572,31.078-8.614,38.966c-2.834,10.94-5.22,16.185-9.16,20.126
c-4.759,4.758-11.028,7.29-20.332,8.21C27.6,114.118,20.077,114.169,17.083,113.924z M-59.041,113.501
c-7.123-0.614-17.414-2.265-18.04-2.891c-0.631-0.63,1.66-0.59,5.815,0.103c13.338,2.227,25.858,2.542,34.335,0.867
c9.422-1.862,17.125-6.272,20.911-11.97c1.672-2.516,2.474-4.954,2.909-8.847c0.357-3.204,0.727-3.309,0.777-0.219
c0.068,4.173-2.041,9.263-5.25,12.664c-5.236,5.551-12.63,8.814-23.074,10.182C-44.412,113.883-53.967,113.941-59.041,113.501z
M-108.901,113.195c-8.434-0.848-15.985-3.901-20.89-8.443c-1.929-1.786-4.167-4.563-3.678-4.563c0.137,0,1.247,1.017,2.467,2.26
s3.027,2.838,4.015,3.547c2.42,1.732,6.826,3.804,10.034,4.72c8.249,2.354,21.818,2.147,30.634-0.465l2.103-0.625l0.387-1.528
c0.213-0.841,0.684-2.472,1.047-3.624c0.363-1.151,1.035-3.622,1.494-5.491c0.468-1.9,1.159-3.891,1.569-4.515
c0.403-0.617,0.77-1.083,0.815-1.038c0.125,0.125-1.53,6.955-2.668,11.016c-0.556,1.983-1.159,4.168-1.342,4.857
c-0.321,1.212-0.392,1.27-2.29,1.857C-91.733,113.178-101.088,113.981-108.901,113.195z M144.207,112.27
c-0.351-0.524-2.94-4.558-5.755-8.966c-5.782-9.051-11.792-18.433-14.071-21.961c-0.841-1.306-1.631-2.541-1.754-2.746
c-0.143-0.243-0.03-0.37,0.326-0.37c0.395,0,2.089,2.403,6.013,8.532c3.005,4.693,6.881,10.735,8.612,13.43
c1.732,2.692,4.008,6.256,5.061,7.918c1.44,2.279,1.994,2.936,2.245,2.671c0.183-0.194,3.11-4.758,6.504-10.144
c10.286-16.325,11.928-18.917,13.257-20.924l1.278-1.928l-2.04-3.265c-1.121-1.796-2.338-3.732-2.705-4.302
c-0.366-0.573-2.305-3.644-4.306-6.828c-2.003-3.182-3.936-6.255-4.295-6.825c-0.36-0.572-1.256-1.974-1.991-3.116
c-3.718-5.777-5.629-9.077-5.533-9.558c0.067-0.345,1.026,0.934,2.715,3.622c5.732,9.12,13.988,22.192,16.546,26.196
c1.555,2.435,2.632,4.418,2.537,4.668c-0.146,0.383-7.242,11.74-9.827,15.733c-0.528,0.816-3.398,5.355-6.377,10.089
c-2.978,4.733-5.502,8.703-5.61,8.818C144.929,113.128,144.556,112.794,144.207,112.27z M14.958,96.506
c-0.434-0.382-1.001-1.105-1.261-1.608c-0.877-1.696-0.497-7.695,0.868-13.704c0.241-1.061,1.645-7.337,3.12-13.947
c4.194-18.804,4.439-19.79,5.067-20.358c0.312-0.283,0.615-0.459,0.674-0.391c0.112,0.128-1.123,5.829-5.105,23.567
c-2.905,12.943-3.587,16.611-3.807,20.479c-0.165,2.898-0.147,3.007,0.755,4.704c0.507,0.955,0.923,1.79,0.923,1.854
C16.193,97.391,15.686,97.147,14.958,96.506z M-41.086,88.997c-1.388-1.075-3.675-2.231-11.247-5.692
c-5.473-2.501-8.426-4.31-10.987-6.734c-1.86-1.76-3.311-3.687-2.777-3.687c0.137,0,1.045,0.807,2.02,1.792
c2.709,2.742,5.532,4.52,12.4,7.808c7.751,3.713,10.494,5.221,11.58,6.364C-38.892,90.121-39.515,90.214-41.086,88.997z
M-114.659,85.008c-0.179-0.514-0.326-2.232-0.326-3.82c0-6.66,3.168-13.89,7.914-18.064c3.429-3.014,7.422-4.757,12.741-5.555
c3.582-0.538,6.701-0.315,11.025,0.791c3.747,0.959,9.703,4.402,8.938,5.167c-0.067,0.067-0.719-0.28-1.45-0.772
c-2.171-1.457-4.873-2.623-7.941-3.425c-2.404-0.63-3.553-0.755-6.892-0.754c-4.76,0-7.407,0.582-11.254,2.474
c-3.544,1.741-7.317,5.536-9.263,9.313c-2.455,4.764-3.418,8.88-3.074,13.13c0.109,1.346,0.132,2.448,0.052,2.448
C-114.268,85.942-114.48,85.522-114.659,85.008z M-42.213,64.908c-1.037-0.64-0.998-3.616,0.069-5.242
c1.452-2.217,5.302-3.735,9.516-3.754c5.299-0.025,13.432,2.634,17.607,5.754c0.87,0.648,1.618,1.136,1.661,1.079
c0.045-0.054,0.858-2.905,1.809-6.333c0.95-3.427,1.856-6.398,2.011-6.602c0.662-0.871,0.726-0.23,0.177,1.781
c-1.737,6.363-3.289,11.991-3.402,12.343c-0.092,0.283-0.572,0.081-1.661-0.702c-3.269-2.349-8.9-4.637-13.908-5.651
c-7.916-1.605-14.706,1.536-13.632,6.303C-41.68,65.148-41.699,65.226-42.213,64.908z"/>
<path id="path7762" fill="#0D3647" d="M17.607,113.829c-8.9-0.741-14.417-2.583-18.96-6.331c-1.653-1.363-3.244-3.154-2.802-3.154
c0.08,0,0.96,0.727,1.956,1.616c3.696,3.298,6.826,4.911,11.717,6.039c7.817,1.801,19.354,1.647,27.673-0.373
c6.389-1.55,11.771-4.957,14.95-9.46c2.555-3.622,3.888-6.807,6.354-15.183c1.909-6.488,4.628-17.836,7.869-32.869
c0.818-3.79,1.616-7.019,1.773-7.176c0.188-0.187,0.289-0.168,0.289,0.054c0,1.319-7.331,34.195-8.895,39.89
c-1.4,5.105-2.657,8.77-4.016,11.726c-3.811,8.288-11.098,13.142-22.166,14.759C29.419,113.942,21.688,114.168,17.607,113.829z
M-57.41,113.533c-8.288-0.706-18.795-2.334-19.439-3.014c-0.357-0.376,0.973-0.234,5.639,0.605
c10.125,1.82,22.499,2.444,29.975,1.51c15.281-1.91,25.696-8.827,27.806-18.466c0.39-1.781,0.834-2.485,0.834-1.325
c0,1.627-1.515,5.561-2.992,7.77c-4.317,6.452-12.425,10.713-23.765,12.488C-43.012,113.671-52.968,113.911-57.41,113.533z
M-110.237,112.927c-4.616-0.585-9.396-1.994-13.146-3.873c-3.314-1.66-7.926-5.222-7.926-6.122c0-0.281,0.528,0.041,1.41,0.866
c4.229,3.947,10.167,6.74,17.288,8.128c3.367,0.657,12.618,0.906,16.918,0.456c6.385-0.668,11.431-1.987,11.853-3.098
c0.525-1.383,2.492-8.522,3.147-11.418c0.618-2.733,1.183-4.147,1.522-3.808c0.195,0.195-2.463,10.782-3.944,15.707
c-0.296,0.981-4.779,2.294-10.39,3.04C-97.005,113.271-106.951,113.344-110.237,112.927z M144.64,112.791
c-0.418-0.418,1.056-2.94,9.967-17.054c5.206-8.243,9.807-15.545,10.223-16.226c0.448-0.728,1.041-1.292,1.444-1.368
c0.376-0.072,0.685-0.09,0.685-0.041c0,0.101-1.94,3.199-6.762,10.809c-1.812,2.857-4.553,7.198-6.093,9.645
c-1.541,2.449-4.101,6.523-5.693,9.052C145.352,112.471,144.918,113.067,144.64,112.791z M141.732,108.201
c-0.174-0.326-0.25-0.594-0.168-0.594c0.081,0,0.292,0.267,0.465,0.594c0.176,0.326,0.253,0.595,0.169,0.595
C142.116,108.796,141.907,108.528,141.732,108.201z M139.06,104.046c-0.174-0.326-0.25-0.592-0.169-0.592s0.292,0.266,0.466,0.592
c0.175,0.326,0.252,0.595,0.17,0.595C139.445,104.641,139.236,104.372,139.06,104.046z M135.795,99.002
c-0.173-0.326-0.25-0.594-0.168-0.594c0.08,0,0.292,0.267,0.466,0.594c0.174,0.325,0.25,0.594,0.169,0.594
C136.181,99.595,135.971,99.327,135.795,99.002z M13.965,94.495c-0.404-0.868-0.736-2.116-0.737-2.773
c-0.008-3.271,1.584-11.957,3.996-21.807c0.739-3.018,1.417-5.807,1.505-6.194c0.088-0.387,0.675-2.791,1.304-5.342
c0.629-2.55,1.445-6.039,1.813-7.753s0.85-3.311,1.07-3.551c0.219-0.239,0.399-0.302,0.399-0.139
c0,0.366-1.901,8.981-5.009,22.686c-3.789,16.715-4.578,22.421-3.467,25.08C15.551,96.405,14.769,96.222,13.965,94.495z
M-42.273,88.064c-0.735-0.461-3.606-1.879-6.381-3.151c-2.774-1.274-6.183-2.885-7.575-3.58
c-2.471-1.235-6.721-4.181-7.809-5.412c-0.955-1.081,0.136-0.586,2.029,0.921c2.612,2.08,5.119,3.507,10.564,6.016
c6.379,2.937,9.871,4.754,10.519,5.471C-40.188,89.147-40.708,89.043-42.273,88.064z M126.894,85.052
c-0.175-0.326-0.253-0.594-0.17-0.594s0.292,0.267,0.466,0.594c0.175,0.328,0.25,0.594,0.169,0.594
C127.277,85.646,127.067,85.38,126.894,85.052z M-114.762,83.47c-0.366-0.893-0.254-3.634,0.248-6.073
c1.076-5.229,3.452-9.686,7.091-13.304c1.967-1.954,2.953-2.667,5.222-3.781c1.538-0.754,3.598-1.586,4.578-1.847
c2.396-0.636,8.348-0.875,11.111-0.445c4.655,0.727,10.745,3.329,11.86,5.07l0.474,0.742l-1.039-0.776
c-1.85-1.379-5.379-2.977-8.287-3.749c-3.908-1.038-10.247-1.094-13.794-0.124c-4.203,1.15-6.499,2.511-9.841,5.833
c-2.672,2.657-3.147,3.3-4.512,6.087c-1.838,3.756-2.452,6.015-2.7,9.943C-114.464,82.82-114.63,83.795-114.762,83.47z
M-42.737,63.569c-0.59-2.35,1.476-5.139,4.767-6.437c1.558-0.614,2.263-0.699,5.639-0.689c3.607,0.012,4.09,0.085,7.419,1.125
c3.81,1.188,8.071,3.094,10.232,4.576c0.731,0.501,1.358,0.881,1.394,0.845c0.036-0.036,0.864-2.977,1.84-6.539
c1.727-6.299,1.956-6.974,2.261-6.669c0.173,0.174-3.404,13.641-3.719,14.001c-0.119,0.135-0.866-0.217-1.66-0.782
c-3.083-2.195-8.542-4.372-13.857-5.523c-3.417-0.741-4.636-0.768-7.265-0.163c-4.078,0.939-6.369,2.838-6.47,5.36
C-42.219,64.268-42.466,64.648-42.737,63.569z"/>
</g>
<path id="path12753" fill="#108F43" d="M148.578,162.932c-28.937-6.507-35.889-21.925-35.889-21.925s22.092,23.926,78.883,14.559
c59.208-9.765,70.77-41.726,70.77-41.726s-0.646,22.337-36.859,39.774C208.378,161.849,175.091,168.896,148.578,162.932"/>
<path id="path12727" fill="#108F43" d="M148.578,162.932c-28.937-6.507-35.889-21.925-35.889-21.925s22.092,23.926,78.883,14.559
c59.208-9.765,70.77-41.726,70.77-41.726s-0.646,22.337-36.859,39.774C208.378,161.849,175.091,168.896,148.578,162.932"/>
<g id="g13733" transform="matrix(5.5082345,0,0,-5.5082345,-2243.9273,506.41943)">
<path id="path3569" fill="#FCCB12" d="M444.656,67.818c-0.134,0.216-0.401,0.234-0.401,0.234s-0.01,0.055-0.05,0.087
c-0.141,0.091-0.333-0.043-0.477-0.056c-0.127-0.014-0.243,0.01-0.352,0.054c-0.135,0.054-0.248,0.156-0.36,0.247
c-0.149,0.138-0.406,0.343-0.499,0.436c-0.093,0.094-0.124,0.135-0.149,0.185c0.034-0.021,0.081-0.093,0.242-0.106
c0.161-0.014,0.265,0.05,0.364,0.134c0.018,0.024,0.053,0.047,0.043,0.077c-0.038,0-0.13,0.015-0.182,0.043
c-0.052,0.028-0.061,0.057-0.046,0.063c0.062,0.006,0.142,0.001,0.249,0.03c0.107,0.029,0.202,0.102,0.191,0.123
c-0.02,0.005-0.124,0.009-0.203,0.038c-0.113,0.043-0.165,0.116-0.165,0.116s0.104-0.014,0.25-0.001
c0.106,0.01,0.284,0.119,0.277,0.133c0,0-0.181-0.003-0.285,0.089c-0.066,0.059-0.087,0.118-0.087,0.118s0.106-0.019,0.212,0.012
c0.118,0.028,0.19,0.099,0.224,0.195c0,0-0.074-0.024-0.18,0.005c-0.061,0.016-0.136,0.06-0.208,0.111
c-0.007,0.009,0.148,0.001,0.233,0.056c0.106,0.079,0.106,0.178,0.092,0.211c0,0-0.03-0.002-0.159,0.023
c-0.424,0.085-0.505,0.536-0.931,0.759c-0.101,0.052-0.827,0.307-0.827,0.307l0.044,0.202c0,0,0.067,0.039,0.127,0.085
c0.037,0.028,0.072,0.072,0.085,0.074c0.036,0.006-0.081-0.293-0.018-0.306c0.113,0.014,0.423,0.327,0.548,0.355
c0.085-0.051,0.088-0.231,0.081-0.315c-0.004-0.01,0-0.027,0.014-0.024c0.145,0.074,0.269,0.192,0.378,0.316
c0.035-0.003,0.071-0.003,0.102-0.017c0.057-0.027,0.138-0.06,0.141-0.128c-0.025-0.107-0.065-0.219,0.027-0.318
c0.007-0.141,0.055-0.269,0.125-0.331c0.092-0.081,0.208-0.115,0.336-0.088c0.011,0.003,0.032,0.003,0.032,0.02
c-0.039,0.037-0.092,0.077-0.109,0.128c-0.022,0.057-0.034,0.11-0.034,0.181c0.072,0.012,0.117,0.113,0.117,0.113
s0.072-0.017,0.143-0.001c0.071,0.016,0.118,0.046,0.118,0.046s0.062-0.043,0.093-0.073c0.19-0.191,0.17-0.34,0.17-0.34h0.014
c0.077,0.094,0.124,0.205,0.127,0.33c0.01,0.231-0.213,0.46-0.213,0.46s0.033,0.058,0.058,0.085
c0.028,0.027,0.067,0.047,0.109,0.037c0.141-0.017,0.244-0.155,0.272-0.276h0.014c0.042,0.115,0.052,0.242,0.021,0.363
c-0.029,0.138-0.163,0.266-0.304,0.299c-0.037,0.01-0.131,0.015-0.131,0.015s-0.058,0.03-0.133,0.035
c-0.076,0.005-0.076,0.04-0.076,0.04s0.024,0.06,0.117,0.142c0.092,0.082,0.235,0.135,0.235,0.135s-0.223,0.087-0.429,0.012
c-0.124-0.045-0.218-0.123-0.218-0.123s-0.107-0.037-0.17-0.093c-0.057-0.049-0.106-0.132-0.112-0.163
c-0.012-0.065,0.023-0.079-0.03-0.102c-0.064-0.01-0.224,0.028-0.224,0.028l0.032,0.244c0,0,0.076,0,0.14,0.013
c0,0-0.068,0.207-0.103,0.312c-0.005,0.013-0.009,0.025-0.012,0.037c0.069-0.028,0.218-0.078,0.353-0.053
c0.184,0.035,0.341,0.155,0.341,0.155s-0.089,0.059-0.188,0.112c-0.041,0.057-0.204,0.291-0.252,0.357
c0.057,0.057,0.272,0.257,0.276,0.311c-0.013,0.002-0.121-0.027-0.213-0.036c-0.098-0.01-0.181,0-0.181,0s0.139,0.258,0.107,0.282
c-0.046-0.01-0.092-0.03-0.141-0.037c0.057,0.145,0.145,0.272,0.237,0.404c0.021,0.027,0.043,0.064,0.082,0.067
c0.082-0.034,0.198-0.03,0.276,0.017c0.134-0.044,0.295-0.087,0.419,0.004c0.113,0.074,0.164,0.211,0.154,0.339
c-0.007,0.01-0.004,0.034-0.025,0.03c-0.035-0.037-0.06-0.078-0.099-0.111c-0.074-0.05-0.159-0.079-0.224-0.066
c-0.065,0.013-0.096,0.021-0.096,0.021s0.004,0.027,0.011,0.056c0.004,0.04-0.003,0.067-0.003,0.067s0.081,0.016,0.152,0.056
c0.095,0.054,0.084,0.169,0.084,0.169s0.062,0.045,0.157,0.035c0.143-0.016,0.25-0.103,0.25-0.103s0.013,0.244-0.261,0.368
c-0.093,0.041-0.336,0.006-0.336,0.006s-0.068,0.007-0.038,0.063c0.031,0.056,0.02,0.091,0.02,0.091s0.024,0.066,0.078,0.107
c0.126,0.093,0.286,0.067,0.286,0.067s-0.068,0.147-0.185,0.177c-0.138,0.051-0.29,0.012-0.396-0.069
c-0.043-0.037-0.067-0.06-0.112-0.113c-0.017,0.003-0.045-0.028-0.045-0.011c0.022,0.118,0.13,0.273,0.229,0.347l-0.008,0.014
c-0.099,0.023-0.289,0.017-0.42-0.068c-0.099-0.073-0.165-0.188-0.191-0.299c0,0-0.167-0.098-0.144-0.334
c0.01-0.107,0.048-0.17,0.078-0.203c0.023-0.026,0.032-0.055,0.015-0.087c-0.042-0.081-0.13-0.239-0.222-0.354
c-0.129-0.16-0.286-0.344-0.286-0.344l-0.032,0.112c0,0-0.212-0.021-0.283,0.004c-0.146,0.05-0.239,0.126-0.254,0.128l0.004,0.017
c0,0,0.017,0.051,0.026,0.112c0.009,0.061,0.011,0.124,0.029,0.13l0.395,0.034c0,0,0.034-0.002,0.158,0.03
c0.187,0.047,0.325,0.289,0.318,0.498c-0.004,0.141-0.06,0.303-0.216,0.37c-0.113,0.047-0.258,0.034-0.357-0.037
c-0.007-0.014-0.024-0.027-0.01-0.044c0.074-0.013,0.169-0.047,0.191-0.128c0.046-0.128,0.021-0.283-0.085-0.377
c-0.06-0.03-0.195-0.06-0.195-0.06l0.079,0.165c0,0-0.128-0.054-0.142-0.047c0.07,0.121,0.134,0.273,0.081,0.414
c-0.011,0.013-0.047-0.01-0.047-0.01s0.011,0.042,0.017,0.143c0.015,0.215-0.048,0.383-0.048,0.383s-0.068-0.058-0.099-0.081
c-0.032-0.007-0.02-0.001-0.039,0.064c-0.019,0.065-0.049,0.115-0.098,0.115c-0.014-0.02-0.025-0.094-0.039-0.111
c-0.011-0.01-0.022,0.01-0.029,0.02c-0.018,0.087-0.056,0.197-0.123,0.264c-0.042,0.04-0.223,0.138-0.223,0.138
s0.012-0.049,0.005-0.085c-0.005-0.036-0.029-0.084-0.029-0.084s-0.221,0.141-0.34,0.19c-0.079,0.033-0.151,0.043-0.151,0.043
s0.032-0.034,0.036-0.084c0.004-0.05-0.003-0.086-0.003-0.086s-0.129,0.083-0.213,0.119c-0.093,0.04-0.185,0.07-0.217,0.064
c-0.017,0,0.022-0.058,0.04-0.107c0.029-0.054,0.016-0.099,0.016-0.099s-0.163,0.094-0.223,0.113
c-0.06,0.02-0.158,0.029-0.158,0.029s0.084-0.242,0.031-0.289c-0.064,0-0.257-0.005-0.367,0.062c0,0-0.014-0.064-0.01-0.131
c0.002-0.045,0.021-0.122,0.021-0.122s-0.138,0.021-0.194,0.034c-0.056,0.013-0.114,0.041-0.114,0.041s-0.086-0.101-0.053-0.268
c0.014-0.069,0.055-0.134,0.055-0.134s-0.161-0.077-0.217-0.137c-0.063-0.071-0.152-0.114-0.254-0.101l-0.007-0.01
c0.014-0.114,0.216-0.296,0.216-0.296s-0.055-0.064-0.139-0.148c-0.084-0.085-0.195-0.144-0.195-0.144s0.046-0.091,0.085-0.124
c0.067-0.084,0.217-0.239,0.217-0.239l-0.317-0.16c0,0,0.119-0.107,0.222-0.178s0.246-0.111,0.246-0.111l-0.12-0.065
c0,0,0.151-0.192,0.23-0.273c0.079-0.082,0.199-0.174,0.199-0.174l-0.344-0.111c0,0,0.076-0.093,0.191-0.181
c0.114-0.088,0.259-0.136,0.259-0.136l-0.187-0.072c0,0,0.117-0.114,0.223-0.194c0.106-0.08,0.297-0.16,0.297-0.16
s-0.054-0.032-0.107-0.053c-0.062-0.025-0.139-0.076-0.139-0.076l0.342-0.242c0,0-0.21-0.087-0.24-0.091
c-0.031-0.004-0.046-0.02-0.039-0.043c0.092-0.144,0.3-0.202,0.463-0.235l-0.176-0.202c0.054-0.076,0.371-0.105,0.371-0.105
l-0.014-0.085c0,0-0.103-0.009-0.179-0.004c-0.194,0.015-0.385-0.187-0.421-0.261c-0.037-0.074-0.064-0.209-0.191-0.215
c-0.085,0-0.17,0.034-0.205,0.111c-0.075,0.131-0.039,0.303,0.028,0.428c0.117,0.252,0.272,0.491,0.254,0.794
c0,0.178-0.081,0.44-0.34,0.49c-0.491,0.066-0.468,0.193-0.392,0.331c0.092,0.141,0.184,0.286,0.163,0.471
c-0.021,0.145-0.101,0.279-0.254,0.354c-0.153,0.074-0.409,0.071-0.562-0.064c-0.153-0.135-0.224-0.281-0.159-0.478
c0.039-0.119,0.177-0.235,0.322-0.252c0.01-0.003,0.032,0,0.032,0.017c-0.039,0.04-0.063,0.091-0.071,0.148
c-0.01,0.071,0.014,0.152,0.067,0.192c0.053,0.04,0.127,0.048,0.205-0.027c0.038-0.044,0.024-0.104,0.017-0.158
c-0.032-0.128-0.114-0.236-0.148-0.36c-0.049-0.178,0.073-0.286,0.206-0.324c-0.13-0.052-0.273-0.157-0.315-0.261
c-0.035-0.088-0.056-0.173,0.04-0.341c0.114-0.198,0.291-0.356,0.152-0.414c-0.074-0.024-0.18,0.091-0.21,0.186
c-0.014,0.02-0.003,0.064-0.039,0.067c-0.149-0.094-0.351-0.454,0.028-0.646c0.303-0.154,0.581,0.094,0.598,0.474
c0.017,0.363-0.167,0.494-0.146,0.61c0.022,0.116,0.193,0.084,0.231,0.058c0.085-0.044,0.13-0.165,0.127-0.256
c-0.035-0.243-0.147-0.463-0.235-0.682c-0.117-0.215-0.245-0.521-0.084-0.744c0.256-0.356,0.641-0.165,0.814-0.148
c0.064-0.003,0.145-0.061,0.206-0.314c0.026-0.11,0.006-0.247-0.082-0.38c-0.108-0.164-0.281-0.205-0.524-0.22
c-0.243-0.015-0.48-0.067-0.663-0.181c-0.223-0.162-0.225-0.421-0.261-0.667c-0.014-0.094-0.042-0.175-0.091-0.255
c0.046-0.031,0.238,0.052,0.238,0.052s-0.053-0.266-0.121-0.411c-0.004-0.011-0.018-0.017-0.004-0.027
c0.074-0.003,0.26,0.133,0.26,0.133s-0.034-0.172-0.127-0.326c-0.038-0.063-0.078-0.077-0.053-0.121
c0.078-0.01,0.36,0.12,0.36,0.12s0.012-0.005-0.032-0.173c-0.013-0.052-0.033-0.115-0.056-0.155
c-0.024-0.04-0.052-0.071-0.082-0.112c0.026-0.007,0.11,0.01,0.196,0.041c0.088,0.033,0.222,0.091,0.222,0.091
s-0.093-0.06-0.147-0.14c-0.034-0.05-0.045-0.106-0.045-0.106l0.002,0c-0.131-0.094-0.202-0.175-0.228-0.305
c-0.026-0.131,0.072-0.288,0.198-0.364c0.029-0.017,0.082-0.038,0.097-0.031c0.004,0.065-0.022,0.141,0.009,0.196
c0.05,0.087,0.168,0.099,0.168,0.099s0.022-0.005,0.034-0.006c0.101-0.007,0.193,0.024,0.254,0.092
c0.026-0.021,0.25-0.174,0.317-0.295c0.071-0.093,0.037-0.296,0.059-0.357c0.025,0,0.226,0.205,0.31,0.394
c0.039,0.088,0.058,0.169,0.058,0.169s0.059,0.011,0.136-0.055c0.078-0.065,0.116-0.3,0.101-0.464l0.007-0.011
c0.119,0.103,0.234,0.237,0.288,0.377c0.05,0.121,0.018,0.264-0.076,0.357c-0.003,0.008-0.088,0.07-0.088,0.07l-0.006,0.022
c0,0,0.125-0.036,0.205-0.104c0.08-0.068,0.185-0.241,0.185-0.241s0.134,0.293-0.058,0.538c-0.157,0.184-0.46,0.244-0.46,0.244
s-0.16,0.1-0.386,0.079c-0.047-0.004-0.209-0.08-0.209-0.08s-0.173,0.271-0.306,0.601c-0.049,0.127-0.116,0.368-0.116,0.368
s0.119-0.156,0.119-0.102c0,0.03-0.005,0.112,0.017,0.18c0.018,0.054,0.066,0.119,0.084,0.113c0.009-0.003,0.01-0.099,0.032-0.194
c0.022-0.095,0.085-0.191,0.114-0.164c0.013,0.013,0.017,0.085,0.045,0.147c0.03,0.068,0.106,0.156,0.132,0.179
c0.021,0.014-0.014-0.06-0.017-0.167c-0.001-0.054,0.013-0.13,0.037-0.178c0.024-0.048,0.05-0.078,0.062-0.062
c0.006,0.008,0.036,0.107,0.084,0.194c0.045,0.08,0.177,0.216,0.206,0.214c0.027-0.002-0.019-0.157-0.01-0.275
c0.006-0.073,0.057-0.162,0.071-0.143c0.014,0.019,0.312,0.33,0.299,0.27c-0.031-0.139-0.011-0.296,0.088-0.321
c0.019,0.121,0.186,0.249,0.276,0.411c0.09,0.162,0.118,0.256,0.164,0.398c0.067,0.182,0.134,0.506,0.129,0.774
c-0.001,0.02,0.17-0.07,0.181-0.09c0.093-0.087,0.091-0.292,0.043-0.451c-0.048-0.159-0.135-0.259-0.211-0.405
c-0.107-0.195-0.079-0.317-0.079-0.317s-0.057-0.096-0.038-0.205c0.035-0.196,0.068-0.231,0.081-0.335
c0.021-0.175,0-0.293,0.007-0.325h0.011c0.018,0.011,0.064,0.07,0.105,0.136c0.041,0.067,0.077,0.14,0.077,0.14
s0.029-0.036,0.032-0.148c0.001-0.051,0-0.115-0.006-0.196c0.032,0.015,0.085,0.059,0.123,0.116c0.05,0.074,0.09,0.142,0.09,0.142
s0.05-0.114,0.069-0.187c0.029-0.104,0.051-0.218,0.074-0.283l0.011-0.007c0.028,0.012,0.064,0.074,0.094,0.134
c0.031,0.061,0.054,0.12,0.054,0.12s0.044-0.071,0.084-0.166c0.03-0.071,0.059-0.163,0.068-0.202l0.012-0.012h0.004
c0.101,0.071,0.116,0.229,0.144,0.309c0.028,0.08,0.063,0.106,0.063,0.106l0.16-0.169c0,0-0.041-0.024-0.073-0.079
c-0.031-0.055-0.04-0.084-0.04-0.084s-0.139-0.032-0.235-0.222c-0.121-0.24-0.007-0.487,0.044-0.501
c0.034,0.102,0.112,0.262,0.215,0.317c0.04,0.028,0.151,0.052,0.151,0.052s0.084-0.04,0.162-0.017
c0.05,0.015,0.11,0.068,0.136,0.095c0.021-0.006,0.044-0.034,0.068-0.045c0.045-0.021,0.088-0.026,0.088-0.026
s0.111-0.059,0.181-0.164c0.071-0.106,0.1-0.259,0.093-0.313l0.01-0.006c0.072,0.049,0.186,0.161,0.219,0.283
c0.037,0.134-0.01,0.275-0.01,0.275h0.044c0,0,0.059-0.049,0.142-0.161c0.084-0.111,0.121-0.276,0.121-0.276
c0.086,0.059,0.148,0.223,0.169,0.322c0.017,0.108-0.007,0.244-0.08,0.326c0.059,0.001,0.138-0.002,0.208-0.045
c0.144-0.09,0.183-0.18,0.183-0.18S444.771,67.663,444.656,67.818"/>
<path id="path3571" fill="#231F20" d="M444.656,67.818c-0.134,0.216-0.401,0.234-0.401,0.234s-0.01,0.055-0.05,0.087
c-0.141,0.091-0.333-0.043-0.477-0.056c-0.127-0.014-0.243,0.01-0.352,0.054c-0.135,0.054-0.248,0.156-0.36,0.247
c-0.149,0.138-0.406,0.343-0.499,0.436c-0.093,0.094-0.124,0.135-0.149,0.185c0.034-0.021,0.081-0.093,0.242-0.106
c0.161-0.014,0.265,0.05,0.364,0.134c0.018,0.024,0.053,0.047,0.043,0.077c-0.038,0-0.13,0.015-0.182,0.043
c-0.052,0.028-0.061,0.057-0.046,0.063c0.062,0.006,0.142,0.001,0.249,0.03c0.107,0.029,0.202,0.102,0.191,0.123
c-0.02,0.005-0.124,0.009-0.203,0.038c-0.113,0.043-0.165,0.116-0.165,0.116s0.104-0.014,0.25-0.001
c0.106,0.01,0.284,0.119,0.277,0.133c0,0-0.181-0.003-0.285,0.089c-0.066,0.059-0.087,0.118-0.087,0.118s0.106-0.019,0.212,0.012
c0.118,0.028,0.19,0.099,0.224,0.195c0,0-0.074-0.024-0.18,0.005c-0.061,0.016-0.136,0.06-0.208,0.111
c-0.007,0.009,0.148,0.001,0.233,0.056c0.106,0.079,0.106,0.178,0.092,0.211c0,0-0.03-0.002-0.159,0.023
c-0.424,0.085-0.505,0.536-0.931,0.759c-0.101,0.052-0.827,0.307-0.827,0.307l0.044,0.202c0,0,0.067,0.039,0.127,0.085
c0.037,0.028,0.072,0.072,0.085,0.074c0.036,0.006-0.081-0.293-0.018-0.306c0.113,0.014,0.423,0.327,0.548,0.355
c0.085-0.051,0.088-0.231,0.081-0.315c-0.004-0.01,0-0.027,0.014-0.024c0.145,0.074,0.269,0.192,0.378,0.316
c0.035-0.003,0.071-0.003,0.102-0.017c0.057-0.027,0.138-0.06,0.141-0.128c-0.025-0.107-0.065-0.219,0.027-0.318
c0.007-0.141,0.055-0.269,0.125-0.331c0.092-0.081,0.208-0.115,0.336-0.088c0.011,0.003,0.032,0.003,0.032,0.02
c-0.039,0.037-0.092,0.077-0.109,0.128c-0.022,0.057-0.034,0.11-0.034,0.181c0.072,0.012,0.117,0.113,0.117,0.113
s0.072-0.017,0.143-0.001c0.071,0.016,0.118,0.046,0.118,0.046s0.062-0.043,0.093-0.073c0.19-0.191,0.17-0.34,0.17-0.34h0.014
c0.077,0.094,0.124,0.205,0.127,0.33c0.01,0.231-0.213,0.46-0.213,0.46s0.033,0.058,0.058,0.085
c0.028,0.027,0.067,0.047,0.109,0.037c0.141-0.017,0.244-0.155,0.272-0.276h0.014c0.042,0.115,0.052,0.242,0.021,0.363
c-0.029,0.138-0.163,0.266-0.304,0.299c-0.037,0.01-0.131,0.015-0.131,0.015s-0.058,0.03-0.133,0.035
c-0.076,0.005-0.076,0.04-0.076,0.04s0.024,0.06,0.117,0.142c0.092,0.082,0.235,0.135,0.235,0.135s-0.223,0.087-0.429,0.012
c-0.124-0.045-0.218-0.123-0.218-0.123s-0.107-0.037-0.17-0.093c-0.057-0.049-0.106-0.132-0.112-0.163
c-0.012-0.065,0.023-0.079-0.03-0.102c-0.064-0.01-0.224,0.028-0.224,0.028l0.032,0.244c0,0,0.076,0,0.14,0.013
c0,0-0.068,0.207-0.103,0.312c-0.005,0.013-0.009,0.025-0.012,0.037c0.069-0.028,0.218-0.078,0.353-0.053
c0.184,0.035,0.341,0.155,0.341,0.155s-0.089,0.059-0.188,0.112c-0.041,0.057-0.204,0.291-0.252,0.357
c0.057,0.057,0.272,0.257,0.276,0.311c-0.013,0.002-0.121-0.027-0.213-0.036c-0.098-0.01-0.181,0-0.181,0s0.139,0.258,0.107,0.282
c-0.046-0.01-0.092-0.03-0.141-0.037c0.057,0.145,0.145,0.272,0.237,0.404c0.021,0.027,0.043,0.064,0.082,0.067
c0.082-0.034,0.198-0.03,0.276,0.017c0.134-0.044,0.295-0.087,0.419,0.004c0.113,0.074,0.164,0.211,0.154,0.339
c-0.007,0.01-0.004,0.034-0.025,0.03c-0.035-0.037-0.06-0.078-0.099-0.111c-0.074-0.05-0.159-0.079-0.224-0.066
c-0.065,0.013-0.096,0.021-0.096,0.021s0.004,0.027,0.011,0.056c0.004,0.04-0.003,0.067-0.003,0.067s0.081,0.016,0.152,0.056
c0.095,0.054,0.084,0.169,0.084,0.169s0.062,0.045,0.157,0.035c0.143-0.016,0.25-0.103,0.25-0.103s0.013,0.244-0.261,0.368
c-0.093,0.041-0.336,0.006-0.336,0.006s-0.068,0.007-0.038,0.063c0.031,0.056,0.02,0.091,0.02,0.091s0.024,0.066,0.078,0.107
c0.126,0.093,0.286,0.067,0.286,0.067s-0.068,0.147-0.185,0.177c-0.138,0.051-0.29,0.012-0.396-0.069
c-0.043-0.037-0.067-0.06-0.112-0.113c-0.017,0.003-0.045-0.028-0.045-0.011c0.022,0.118,0.13,0.273,0.229,0.347l-0.008,0.014
c-0.099,0.023-0.289,0.017-0.42-0.068c-0.099-0.073-0.165-0.188-0.191-0.299c0,0-0.167-0.098-0.144-0.334
c0.01-0.107,0.048-0.17,0.078-0.203c0.023-0.026,0.032-0.055,0.015-0.087c-0.042-0.081-0.13-0.239-0.222-0.354
c-0.129-0.16-0.286-0.344-0.286-0.344l-0.032,0.112c0,0-0.212-0.021-0.283,0.004c-0.146,0.05-0.239,0.126-0.254,0.128l0.004,0.017
c0,0,0.017,0.051,0.026,0.112c0.009,0.061,0.011,0.124,0.029,0.13l0.395,0.034c0,0,0.034-0.002,0.158,0.03
c0.187,0.047,0.325,0.289,0.318,0.498c-0.004,0.141-0.06,0.303-0.216,0.37c-0.113,0.047-0.258,0.034-0.357-0.037
c-0.007-0.014-0.024-0.027-0.01-0.044c0.074-0.013,0.169-0.047,0.191-0.128c0.046-0.128,0.021-0.283-0.085-0.377
c-0.06-0.03-0.195-0.06-0.195-0.06l0.079,0.165c0,0-0.128-0.054-0.142-0.047c0.07,0.121,0.134,0.273,0.081,0.414
c-0.011,0.013-0.047-0.01-0.047-0.01s0.011,0.042,0.017,0.143c0.015,0.215-0.048,0.383-0.048,0.383s-0.068-0.058-0.099-0.081
c-0.032-0.007-0.02-0.001-0.039,0.064c-0.019,0.065-0.049,0.115-0.098,0.115c-0.014-0.02-0.025-0.094-0.039-0.111
c-0.011-0.01-0.022,0.01-0.029,0.02c-0.018,0.087-0.056,0.197-0.123,0.264c-0.042,0.04-0.223,0.138-0.223,0.138
s0.012-0.049,0.005-0.085c-0.005-0.036-0.029-0.084-0.029-0.084s-0.221,0.141-0.34,0.19c-0.079,0.033-0.151,0.043-0.151,0.043
s0.032-0.034,0.036-0.084c0.004-0.05-0.003-0.086-0.003-0.086s-0.129,0.083-0.213,0.119c-0.093,0.04-0.185,0.07-0.217,0.064
c-0.017,0,0.022-0.058,0.04-0.107c0.029-0.054,0.016-0.099,0.016-0.099s-0.163,0.094-0.223,0.113
c-0.06,0.02-0.158,0.029-0.158,0.029s0.084-0.242,0.031-0.289c-0.064,0-0.257-0.005-0.367,0.062c0,0-0.014-0.064-0.01-0.131
c0.002-0.045,0.021-0.122,0.021-0.122s-0.138,0.021-0.194,0.034c-0.056,0.013-0.114,0.041-0.114,0.041s-0.086-0.101-0.053-0.268
c0.014-0.069,0.055-0.134,0.055-0.134s-0.161-0.077-0.217-0.137c-0.063-0.071-0.152-0.114-0.254-0.101l-0.007-0.01
c0.014-0.114,0.216-0.296,0.216-0.296s-0.055-0.064-0.139-0.148c-0.084-0.085-0.195-0.144-0.195-0.144s0.046-0.091,0.085-0.124
c0.067-0.084,0.217-0.239,0.217-0.239l-0.317-0.16c0,0,0.119-0.107,0.222-0.178s0.246-0.111,0.246-0.111l-0.12-0.065
c0,0,0.151-0.192,0.23-0.273c0.079-0.082,0.199-0.174,0.199-0.174l-0.344-0.111c0,0,0.076-0.093,0.191-0.181
c0.114-0.088,0.259-0.136,0.259-0.136l-0.187-0.072c0,0,0.117-0.114,0.223-0.194c0.106-0.08,0.297-0.16,0.297-0.16
s-0.054-0.032-0.107-0.053c-0.062-0.025-0.139-0.076-0.139-0.076l0.342-0.242c0,0-0.21-0.087-0.24-0.091
c-0.031-0.004-0.046-0.02-0.039-0.043c0.092-0.144,0.3-0.202,0.463-0.235l-0.176-0.202c0.054-0.076,0.371-0.105,0.371-0.105
l-0.014-0.085c0,0-0.103-0.009-0.179-0.004c-0.194,0.015-0.385-0.187-0.421-0.261c-0.037-0.074-0.064-0.209-0.191-0.215
c-0.085,0-0.17,0.034-0.205,0.111c-0.075,0.131-0.039,0.303,0.028,0.428c0.117,0.252,0.272,0.491,0.254,0.794
c0,0.178-0.081,0.44-0.34,0.49c-0.491,0.066-0.468,0.193-0.392,0.331c0.092,0.141,0.184,0.286,0.163,0.471
c-0.021,0.145-0.101,0.279-0.254,0.354c-0.153,0.074-0.409,0.071-0.562-0.064c-0.153-0.135-0.224-0.281-0.159-0.478
c0.039-0.119,0.177-0.235,0.322-0.252c0.01-0.003,0.032,0,0.032,0.017c-0.039,0.04-0.063,0.091-0.071,0.148
c-0.01,0.071,0.014,0.152,0.067,0.192c0.053,0.04,0.127,0.048,0.205-0.027c0.038-0.044,0.024-0.104,0.017-0.158
c-0.032-0.128-0.114-0.236-0.148-0.36c-0.049-0.178,0.073-0.286,0.206-0.324c-0.13-0.052-0.273-0.157-0.315-0.261
c-0.035-0.088-0.056-0.173,0.04-0.341c0.114-0.198,0.291-0.356,0.152-0.414c-0.074-0.024-0.18,0.091-0.21,0.186
c-0.014,0.02-0.003,0.064-0.039,0.067c-0.149-0.094-0.351-0.454,0.028-0.646c0.303-0.154,0.581,0.094,0.598,0.474
c0.017,0.363-0.167,0.494-0.146,0.61c0.022,0.116,0.193,0.084,0.231,0.058c0.085-0.044,0.13-0.165,0.127-0.256
c-0.035-0.243-0.147-0.463-0.235-0.682c-0.117-0.215-0.245-0.521-0.084-0.744c0.256-0.356,0.641-0.165,0.814-0.148
c0.064-0.003,0.145-0.061,0.206-0.314c0.026-0.11,0.006-0.247-0.082-0.38c-0.108-0.164-0.281-0.205-0.524-0.22
c-0.243-0.015-0.48-0.067-0.663-0.181c-0.223-0.162-0.225-0.421-0.261-0.667c-0.014-0.094-0.042-0.175-0.091-0.255
c0.046-0.031,0.238,0.052,0.238,0.052s-0.053-0.266-0.121-0.411c-0.004-0.011-0.018-0.017-0.004-0.027
c0.074-0.003,0.26,0.133,0.26,0.133s-0.034-0.172-0.127-0.326c-0.038-0.063-0.078-0.077-0.053-0.121
c0.078-0.01,0.36,0.12,0.36,0.12s0.012-0.005-0.032-0.173c-0.013-0.052-0.033-0.115-0.056-0.155
c-0.024-0.04-0.052-0.071-0.082-0.112c0.026-0.007,0.11,0.01,0.196,0.041c0.088,0.033,0.222,0.091,0.222,0.091
s-0.093-0.06-0.147-0.14c-0.034-0.05-0.045-0.106-0.045-0.106l0.002,0c-0.131-0.094-0.202-0.175-0.228-0.305
c-0.026-0.131,0.072-0.288,0.198-0.364c0.029-0.017,0.082-0.038,0.097-0.031c0.004,0.065-0.022,0.141,0.009,0.196
c0.05,0.087,0.168,0.099,0.168,0.099s0.022-0.005,0.034-0.006c0.101-0.007,0.193,0.024,0.254,0.092
c0.026-0.021,0.25-0.174,0.317-0.295c0.071-0.093,0.037-0.296,0.059-0.357c0.025,0,0.226,0.205,0.31,0.394
c0.039,0.088,0.058,0.169,0.058,0.169s0.059,0.011,0.136-0.055c0.078-0.065,0.116-0.3,0.101-0.464l0.007-0.011
c0.119,0.103,0.234,0.237,0.288,0.377c0.05,0.121,0.018,0.264-0.076,0.357c-0.003,0.008-0.088,0.07-0.088,0.07l-0.006,0.022
c0,0,0.125-0.036,0.205-0.104c0.08-0.068,0.185-0.241,0.185-0.241s0.134,0.293-0.058,0.538c-0.157,0.184-0.46,0.244-0.46,0.244
s-0.16,0.1-0.386,0.079c-0.047-0.004-0.209-0.08-0.209-0.08s-0.173,0.271-0.306,0.601c-0.049,0.127-0.116,0.368-0.116,0.368
s0.119-0.156,0.119-0.102c0,0.03-0.005,0.112,0.017,0.18c0.018,0.054,0.066,0.119,0.084,0.113c0.009-0.003,0.01-0.099,0.032-0.194
c0.022-0.095,0.085-0.191,0.114-0.164c0.013,0.013,0.017,0.085,0.045,0.147c0.03,0.068,0.106,0.156,0.132,0.179
c0.021,0.014-0.014-0.06-0.017-0.167c-0.001-0.054,0.013-0.13,0.037-0.178c0.024-0.048,0.05-0.078,0.062-0.062
c0.006,0.008,0.036,0.107,0.084,0.194c0.045,0.08,0.177,0.216,0.206,0.214c0.027-0.002-0.019-0.157-0.01-0.275
c0.006-0.073,0.057-0.162,0.071-0.143c0.014,0.019,0.312,0.33,0.299,0.27c-0.031-0.139-0.011-0.296,0.088-0.321
c0.019,0.121,0.186,0.249,0.276,0.411c0.09,0.162,0.118,0.256,0.164,0.398c0.067,0.182,0.134,0.506,0.129,0.774
c-0.001,0.02,0.17-0.07,0.181-0.09c0.093-0.087,0.091-0.292,0.043-0.451c-0.048-0.159-0.135-0.259-0.211-0.405
c-0.107-0.195-0.079-0.317-0.079-0.317s-0.057-0.096-0.038-0.205c0.035-0.196,0.068-0.231,0.081-0.335
c0.021-0.175,0-0.293,0.007-0.325h0.011c0.018,0.011,0.064,0.07,0.105,0.136c0.041,0.067,0.077,0.14,0.077,0.14
s0.029-0.036,0.032-0.148c0.001-0.051,0-0.115-0.006-0.196c0.032,0.015,0.085,0.059,0.123,0.116c0.05,0.074,0.09,0.142,0.09,0.142
s0.05-0.114,0.069-0.187c0.029-0.104,0.051-0.218,0.074-0.283l0.011-0.007c0.028,0.012,0.064,0.074,0.094,0.134
c0.031,0.061,0.054,0.12,0.054,0.12s0.044-0.071,0.084-0.166c0.03-0.071,0.059-0.163,0.068-0.202l0.012-0.012h0.004
c0.101,0.071,0.116,0.229,0.144,0.309c0.028,0.08,0.063,0.106,0.063,0.106l0.16-0.169c0,0-0.041-0.024-0.073-0.079
c-0.031-0.055-0.04-0.084-0.04-0.084s-0.139-0.032-0.235-0.222c-0.121-0.24-0.007-0.487,0.044-0.501
c0.034,0.102,0.112,0.262,0.215,0.317c0.04,0.028,0.151,0.052,0.151,0.052s0.084-0.04,0.162-0.017
c0.05,0.015,0.11,0.068,0.136,0.095c0.021-0.006,0.044-0.034,0.068-0.045c0.045-0.021,0.088-0.026,0.088-0.026
s0.111-0.059,0.181-0.164c0.071-0.106,0.1-0.259,0.093-0.313l0.01-0.006c0.072,0.049,0.186,0.161,0.219,0.283
c0.037,0.134-0.01,0.275-0.01,0.275h0.044c0,0,0.059-0.049,0.142-0.161c0.084-0.111,0.121-0.276,0.121-0.276
c0.086,0.059,0.148,0.223,0.169,0.322c0.017,0.108-0.007,0.244-0.08,0.326c0.059,0.001,0.138-0.002,0.208-0.045
c0.144-0.09,0.183-0.18,0.183-0.18S444.771,67.663,444.656,67.818z M444.268,72.215c0.068-0.085,0.073-0.249,0.073-0.249
s-0.099,0.117-0.201,0.155c-0.045,0.016-0.128-0.007-0.128-0.007s0.01,0.054,0.005,0.11c-0.004,0.049-0.022,0.099-0.022,0.121
C444.111,72.34,444.21,72.287,444.268,72.215z M443.354,71.112c0,0-0.112,0.012-0.173,0.082c-0.062,0.071-0.079,0.183-0.079,0.183
s0.059-0.049,0.151-0.043C443.267,71.254,443.354,71.112,443.354,71.112z M443.327,71.463c-0.039-0.034-0.096-0.051-0.145-0.03
c-0.053,0.003-0.099,0.047-0.116,0.094c-0.046,0.071-0.008,0.152-0.018,0.232l0.007,0.007c0.12-0.034,0.251-0.108,0.304-0.226
C443.362,71.51,443.355,71.476,443.327,71.463z M444.024,71.595c0.045-0.198-0.001-0.267-0.001-0.267s-0.055,0.107-0.122,0.183
c-0.035,0.04-0.108,0.079-0.108,0.079s0.039,0.047,0.061,0.09c0.022,0.043,0.036,0.13,0.036,0.13S444.001,71.696,444.024,71.595z
M443.684,72.744c0.092,0.042,0.263,0.04,0.263,0.04s-0.101-0.045-0.157-0.097c-0.042-0.04-0.094-0.109-0.094-0.109
s-0.01,0.03-0.05,0.056c-0.039,0.026-0.068,0.024-0.068,0.024S443.591,72.702,443.684,72.744z M443.215,72.198
c0.058-0.003,0.05,0.115,0.05,0.172c-0.007,0.091,0.055,0.133,0.137,0.173c0.081,0.041,0.13,0.047,0.184,0
c0.035-0.04,0.043-0.101,0.043-0.151c0.039-0.031,0.088,0,0.138-0.01c0.049-0.007,0.1-0.017,0.131-0.067
c0.063-0.102,0.016-0.244-0.034-0.266c-0.049-0.023-0.114,0.001-0.114,0.001s0.028-0.064,0.041-0.103
c0.013-0.039,0.012-0.203-0.083-0.277c-0.049-0.04-0.12-0.064-0.18-0.04c-0.085,0.037-0.169,0.094-0.247,0.147
c-0.148,0.134-0.485,0.235-0.485,0.235s0.031,0.056,0.054,0.107c0.023,0.051,0.045,0.136,0.045,0.136
S443.07,72.205,443.215,72.198z M443.535,73.053c0,0-0.128-0.103-0.278-0.088c-0.149,0.015-0.317,0.082-0.317,0.082l-0.063,0.171
c0,0,0.262,0.011,0.407-0.048C443.428,73.111,443.535,73.053,443.535,73.053z M443.934,74.653
c0.149,0.003,0.247,0.123,0.247,0.123s-0.031-0.206-0.236-0.233c-0.113-0.015-0.23,0.038-0.23,0.038s0.026,0.019,0.042,0.048
c0.017,0.029,0.02,0.059,0.02,0.059S443.804,74.651,443.934,74.653z M444.128,75.341c0.191-0.024,0.255-0.214,0.255-0.214
s-0.104,0.06-0.197,0.08c-0.089,0.019-0.153-0.006-0.153-0.006s-0.029,0.092-0.04,0.108c-0.011,0.016-0.034,0.024-0.034,0.024
S443.991,75.358,444.128,75.341z M443.761,75.832c0.092,0.034,0.29,0.045,0.343-0.038v-0.007c-0.141,0.03-0.247-0.085-0.339-0.176
c0,0-0.033,0.035-0.069,0.059c-0.037,0.024-0.091,0.024-0.091,0.024S443.68,75.801,443.761,75.832z M443.268,75.908
c0.143,0.144,0.304,0.118,0.304,0.118s-0.084-0.045-0.143-0.182c-0.035-0.081-0.059-0.168-0.059-0.168s-0.058,0.043-0.104,0.051
c-0.046,0.008-0.087,0.007-0.087,0.007S443.211,75.864,443.268,75.908z M442.876,74.669c0.1,0.135,0.13,0.19,0.199,0.301
c0.05,0.082,0.057,0.137,0.043,0.202c-0.008,0.037-0.056,0.098-0.079,0.136c-0.031,0.05-0.017,0.15,0.014,0.2
c0.056,0.073,0.164,0.139,0.258,0.069c0.028-0.017,0.003-0.099,0.063-0.063c0.049,0.05,0.115,0.083,0.188,0.066
c0.049-0.02,0.108-0.053,0.118-0.106c0.018-0.08-0.049-0.123-0.104-0.163c-0.007-0.01,0.007-0.023,0.017-0.02
c0.09,0.01,0.227,0.061,0.29-0.009c0.038-0.043,0.087-0.187,0.063-0.244c-0.073-0.116-0.279-0.086-0.408-0.106
c-0.035-0.013-0.11-0.048-0.091-0.066c0.019-0.019,0.045-0.007,0.102,0.003c0.056,0.01,0.131,0.02,0.159,0
c0.028-0.027,0.005-0.091-0.008-0.127c-0.018-0.056-0.129-0.144-0.192-0.151c-0.123-0.023-0.245,0.123-0.357,0.04
c-0.031-0.04-0.084-0.07-0.091-0.123l0.01-0.006c0.035,0.017,0.07,0.059,0.112,0.04c0.024-0.01,0.032-0.076,0.025-0.093
c-0.08-0.159-0.144-0.296-0.277-0.429c-0.017-0.02-0.238-0.013-0.238-0.013l0.208,0.307l-0.333-0.017
C442.691,74.43,442.814,74.586,442.876,74.669z M442.155,74.436c0.049-0.012,0.269-0.023,0.269-0.023l0.027-0.201l0.293,0.004
c0,0-0.052-0.032-0.091-0.095c-0.039-0.063-0.112-0.171-0.112-0.171l0.21-0.022c0.044-0.002,0.117-0.003,0.148,0.002
c0.072,0.012,0.153,0.059,0.204,0.056c-0.014-0.038-0.09-0.169-0.109-0.207c-0.004-0.008,0.065-0.026,0.143-0.029
c0.083-0.004,0.175,0.005,0.175,0.005s-0.167-0.132-0.171-0.135c-0.072-0.042-0.106-0.047-0.021-0.113
c0.078-0.06,0.215-0.268,0.215-0.268l-0.015-0.002c-0.016,0.005-0.03,0.009-0.044,0.011c-0.125,0.018-0.309,0.034-0.309,0.034
s-0.215,0.04-0.345,0.209c-0.056,0.073-0.036,0.199-0.036,0.199s-0.059,0.021-0.186,0.099c-0.127,0.078-0.156,0.191-0.156,0.191
s0.046,0.009,0.102,0.018c0.056,0.009,0.128-0.003,0.128-0.003s-0.044,0.054-0.103,0.083c-0.059,0.029-0.195,0.032-0.195,0.032
s-0.081,0.143-0.131,0.235c-0.031,0.057-0.079,0.135-0.111,0.187l0,0C441.977,74.504,442.06,74.458,442.155,74.436z
M442.235,75.083c0.138,0.037,0.28,0.113,0.327,0.258c0.032,0.094,0.051,0.235-0.012,0.326c-0.015,0.044-0.137,0.107-0.137,0.107
s0.291,0.053,0.357-0.143c0.064-0.161,0.031-0.362-0.118-0.525c-0.191-0.162-0.49-0.09-0.72-0.151
c-0.138-0.027-0.407-0.119-0.424-0.087c-0.017,0.032,0.124,0.073,0.184,0.1C441.868,75.029,442.055,75.032,442.235,75.083z
M440.948,74.78c-0.183,0.082-0.304,0.263-0.369,0.433c-0.033,0.133-0.104,0.318,0.004,0.437c0.046,0.041,0.097,0.075,0.129,0.13
c0.036,0.01,0.072,0.007,0.111,0.017c0.086,0.017,0.165,0.062,0.222,0.126c0.09,0.007,0.176,0.034,0.237,0.095
c0.079-0.02,0.154-0.017,0.237-0.01c0.015-0.024,0.04-0.051,0.036-0.082c-0.076-0.044-0.179-0.058-0.229-0.147
c-0.025-0.184,0.201-0.232,0.279-0.362c0.014-0.041-0.028-0.051-0.043-0.085c0-0.027-0.011-0.055-0.025-0.075
c-0.035-0.031-0.086-0.051-0.129-0.027c-0.057,0.041-0.118-0.041-0.172,0.014c-0.036,0.017-0.04,0.058-0.047,0.092
c-0.007,0.01-0.021,0.003-0.028,0c-0.021-0.027-0.064-0.051-0.043-0.089c0.022-0.065,0.082-0.105,0.147-0.123
c0.04-0.02,0.107,0.02,0.126-0.031c0.011-0.041-0.004-0.079-0.032-0.102c-0.061-0.055-0.147-0.068-0.226-0.045l-0.072,0.027
c-0.043,0.028-0.068,0.065-0.107,0.096c-0.021-0.014,0.072-0.194,0.144-0.226c0.054-0.031,0.125-0.003,0.182,0
c0.129-0.147,0.39-0.056,0.555-0.012c0.128,0.033,0-0.209-0.076-0.238c-0.186-0.092-0.445-0.062-0.621,0.058
c-0.068,0.041-0.105,0.144-0.177,0.175C440.93,74.821,440.962,74.797,440.948,74.78z M441.7,75.445
c-0.002,0.004-0.005,0.011-0.005,0.017c0,0.004,0.001,0.007,0.004,0.009c0.022,0.01,0.103,0.018,0.113,0.009
c0.033-0.029,0.051-0.091,0.051-0.149c0-0.036-0.001-0.073-0.016-0.098c-0.014-0.025-0.056-0.085-0.082-0.1
c-0.026-0.015-0.098-0.059-0.117-0.024c-0.016,0.029,0.037,0.052,0.063,0.071c0.041,0.031,0.032,0.091,0.032,0.111
C441.744,75.351,441.737,75.391,441.7,75.445z M441.752,75.61l-0.021-0.005c-0.001,0.036-0.023,0.066-0.051,0.09
c-0.078,0.066-0.115,0.065-0.115,0.065s0.126,0.054,0.203-0.059C441.794,75.664,441.782,75.635,441.752,75.61z M441.654,75.59
l-0.146-0.012l-0.096,0.081C441.376,75.638,441.576,75.873,441.654,75.59z M441.088,76.624c0,0,0.165-0.076,0.194-0.093
c0.042-0.025,0.221-0.163,0.221-0.163s0.026,0.058,0.039,0.092c0.013,0.034,0.025,0.084,0.025,0.084s0.129-0.075,0.174-0.21
c0.013-0.039,0.026-0.147,0.026-0.147s0.111-0.096,0.143-0.055c0.015,0.019,0.026,0.116,0.026,0.116
c0.016-0.026,0.036-0.156,0.032-0.186c0.081-0.027,0.151,0.055,0.151,0.055s0.01-0.119-0.01-0.254
c-0.011-0.073-0.065-0.216-0.065-0.216l0.084,0.043c0,0,0.021-0.069-0.001-0.183c-0.023-0.114-0.068-0.272-0.068-0.272l0.099,0.02
c0,0-0.046-0.084-0.047-0.084c-0.024-0.046-0.132-0.053-0.184-0.065c-0.014,0-0.027,0.003-0.038,0.01l0.057,0.139
c0,0,0.032,0.077,0.023,0.154c-0.004,0.035-0.049,0.097-0.051,0.104c-0.002,0.005-0.005,0.014-0.01,0.022
c-0.032,0.048-0.056,0.057-0.056,0.125c0,0.119-0.002,0.088-0.03,0.173c-0.003,0.007-0.006,0.012-0.01,0.018
c-0.016-0.001-0.033,0-0.047,0.006c-0.02,0.005-0.017,0.09-0.029,0.107c-0.024,0.009-0.083-0.025-0.083-0.025
s-0.032,0.016-0.055,0.047c-0.022,0.032-0.069,0.195-0.069,0.195s-0.081-0.105-0.173-0.065l-0.097,0.057
c0.004,0.046,0.001,0.115-0.04,0.176c-0.031,0.046-0.035,0.044-0.132,0.121c0.004,0.007,0.007,0.016,0.008,0.027
C441.103,76.558,441.088,76.624,441.088,76.624z M439.288,75.536c0.026,0.001,0.07,0.012,0.113,0.041
c0.068,0.047,0.134,0.124,0.171,0.152c0.019,0.015,0.167,0.083,0.167,0.083s-0.033,0.045-0.044,0.076
c-0.057,0.159-0.019,0.263-0.019,0.263s0.053-0.022,0.165-0.031c0.113-0.009,0.21-0.002,0.21-0.002s-0.005,0.073-0.01,0.096
c-0.01,0.048-0.019,0.084-0.024,0.117c0.109-0.033,0.297-0.053,0.317-0.056c0.075-0.015,0.077,0.235,0.065,0.27
c0.024-0.01,0.135-0.06,0.187-0.091c0.04-0.024,0.112-0.048,0.112-0.048s0.024-0.005,0.04,0.037
c0.01,0.026-0.008,0.149-0.008,0.149s0.059-0.013,0.169-0.068c0.109-0.055,0.145-0.085,0.145-0.085s0.096-0.059,0.121-0.11
c0.07-0.146,0.01-0.25,0.01-0.25l-0.053-0.033c-0.026-0.015-0.062,0.01-0.13,0.045c-0.067,0.035-0.155,0.015-0.155,0.015
s0.057-0.03,0.073-0.079s-0.021-0.104-0.021-0.104l-0.14-0.045c-0.103,0.047-0.259,0.04-0.259,0.04s0.135-0.108,0.123-0.13
c-0.056-0.112-0.04-0.112-0.112-0.144c-0.058-0.026-0.233-0.06-0.25-0.082c0.024-0.007,0.202-0.054,0.213-0.113
c0.009-0.07-0.046-0.107-0.083-0.168c-0.043-0.073-0.069-0.165-0.069-0.165s0.051,0.012,0.146,0.033
c0.117,0.027,0.054-0.071,0.033-0.144c-0.027-0.095,0.004-0.219,0.004-0.219s0.125,0.047,0.169,0.054
c0.165,0.026,0.12-0.086,0.103-0.187c-0.013-0.075,0.003-0.139,0.003-0.139l0.076,0.06c0.016,0.023,0.036,0.045,0.061,0.065
c0.039,0.024,0.116,0.03,0.133-0.02c0-0.002-0.001-0.003-0.001-0.004c0.022-0.053,0.006-0.243,0.025-0.216
c0.031,0.054,0.077,0.12,0.143,0.144c0.038-0.01,0.074-0.02,0.098-0.054c0.045-0.063-0.004-0.137-0.025-0.196
c-0.031-0.054,0.148,0.095,0.178,0.117c0.001,0.002,0.002,0.004,0.004,0.006c0.035,0.03,0.084-0.007,0.094-0.043
c0.007-0.045,0.003-0.089-0.005-0.131c0.017,0.013,0.035,0.028,0.05,0.046c0.042,0.049,0.083,0.161,0.084,0.163
c0.007,0.017,0.018,0.037,0.038,0.043c0.039,0.007,0.078,0.03,0.101,0.016c0.023-0.013,0.019-0.189,0.019-0.189
s0.043,0.03,0.066,0.104c0.044-0.059,0.316-0.432,0.311-0.693c-0.01-0.634-0.541-0.862-0.541-0.862s0.02,0.124,0.032,0.249
c0.012,0.124-0.04,0.268-0.04,0.268s-0.112-0.204-0.24-0.316c-0.128-0.112-0.36-0.211-0.36-0.211s0.042,0.198,0.068,0.288
c0.026,0.09,0.074,0.224,0.074,0.224l-0.163,0.015l0.194,0.205c0,0-0.311-0.006-0.511-0.007c-0.2,0-0.332,0.001-0.332,0.001
l0.073,0.17c0,0-0.167,0.01-0.252,0.025c-0.083,0.015-0.183,0.075-0.183,0.075s0.044,0.063,0.089,0.104
c0.045,0.041,0.136,0.13,0.136,0.13s-0.168-0.049-0.284-0.014c-0.116,0.035-0.154,0.071-0.154,0.071s0.068,0.034,0.129,0.077
c0.062,0.043,0.234,0.096,0.234,0.096s-0.197,0.066-0.299,0.07c-0.102,0.004-0.199,0.028-0.199,0.028s0.079,0.061,0.161,0.142
c0.082,0.081,0.163,0.222,0.163,0.222s-0.118-0.04-0.201-0.072c-0.083-0.032-0.207-0.045-0.207-0.045s0.074,0.133,0.143,0.236
c0.068,0.101,0.198,0.287,0.198,0.287s-0.091,0.014-0.186-0.005c-0.095-0.02-0.173-0.012-0.173-0.012s0.04,0.07,0.087,0.147
c0.046,0.077,0.11,0.13,0.11,0.13s-0.094,0.055-0.058,0.095c0.037,0.04,0.183,0.09,0.21,0.09c0.026,0,0.1,0.065,0.105,0.104
c0.005,0.04-0.042,0.205-0.042,0.205s0.101-0.003,0.202,0.021c0.101,0.024,0.191,0.095,0.191,0.095s-0.189-0.052-0.288-0.047
c-0.099,0.005-0.198-0.024-0.198-0.024s0.025-0.051,0.044-0.113c0.018-0.062,0.023-0.148-0.039-0.162
c-0.062-0.015-0.113-0.018-0.113-0.018s-0.211-0.202-0.318-0.222C439.417,75.461,439.336,75.504,439.288,75.536z M439.519,74.095
l0.157,0.075c0,0-0.188,0.076-0.32,0.164c-0.132,0.088-0.167,0.15-0.167,0.15l0.307,0.169l-0.333,0.326c0,0,0.08,0.064,0.17,0.169
c0.09,0.105,0.177,0.203,0.177,0.203c-0.026,0.011-0.063,0.035-0.101,0.063h0.235c0,0-0.054-0.084-0.078-0.154
c-0.025-0.07-0.052-0.147-0.052-0.147s0.061-0.037,0.155-0.023c0.094,0.014,0.136,0.02,0.136,0.02s-0.087-0.113-0.157-0.224
c-0.07-0.112-0.152-0.274-0.152-0.274s0.081-0.002,0.182,0.018c0.1,0.02,0.196,0.036,0.196,0.036s-0.077-0.053-0.158-0.124
c-0.081-0.071-0.124-0.122-0.124-0.122s0.061-0.068,0.157-0.085c0.096-0.017,0.281-0.017,0.281-0.017s-0.105-0.04-0.173-0.075
c-0.068-0.035-0.131-0.079-0.131-0.079s0.042-0.06,0.13-0.109c0.089-0.049,0.163-0.076,0.163-0.076s-0.023-0.108-0.137-0.126
C439.708,73.823,439.519,74.095,439.519,74.095z M440.187,72.704c0,0,0.288,0.146,0.222,0.178
c-0.032,0.01-0.218,0.087-0.336,0.162c-0.121,0.077-0.174,0.152-0.174,0.152l0.188,0.079c0,0-0.139,0.054-0.241,0.123
c-0.099,0.066-0.203,0.151-0.203,0.151l0.327,0.097c0,0-0.032,0.022-0.075,0.054c0.04,0.011,0.095,0.021,0.164,0.023
c0.154,0.003,0.299-0.04,0.299-0.04l-0.065-0.182c0,0,0.242,0.02,0.424,0.013c0.183-0.007,0.383,0.019,0.383,0.019
s-0.11-0.08-0.152-0.15c-0.042-0.07-0.052-0.13-0.052-0.13s0.026,0.03,0.084,0.05c0.057,0.02,0.107-0.006,0.107-0.006
s-0.03-0.153-0.091-0.283c-0.046-0.099-0.122-0.125-0.156-0.132c0.02,0.001,0.059-0.003,0.126-0.029
c0.106-0.041,0.009-0.124,0.009-0.124s0.258,0.107,0.414,0.21c0.155,0.103,0.241,0.174,0.241,0.174s0.011-0.07-0.021-0.164
c-0.031-0.095-0.055-0.187-0.055-0.187s0.16,0.007,0.406,0.216c0.246,0.208,0.274,0.432,0.309,0.635
c0.035,0.202,0.157,0.102,0.204-0.052c0.047-0.155,0.141-0.304,0.141-0.304s0.058,0.127,0.183-0.073l0.186-0.488
c0,0-0.145,0.016-0.219,0.05c-0.088,0.046-0.228,0.104-0.289,0.141c-0.028-0.074-0.043-0.118-0.072-0.185
c-0.042-0.09-0.072-0.143-0.144-0.258c-0.039,0.116-0.073,0.203-0.091,0.299c-0.002,0.001-0.004,0.002-0.005,0.003
c-0.061-0.066-0.208-0.34-0.308-0.477c-0.022,0.079-0.057,0.265-0.057,0.265s-0.3-0.269-0.316-0.239
c-0.013,0.025,0.032,0.246,0.024,0.285c-0.092-0.057-0.222-0.095-0.324-0.117c0,0-0.141-0.033-0.161-0.021
c-0.041,0.025,0.076,0.248,0.076,0.248c-0.223-0.074-0.584-0.163-0.763-0.08L440.187,72.704z M440.558,71.907
c-0.038,0.002-0.089,0.021-0.089,0.021s0.28,0.273,0.28,0.29c-0.071-0.007-0.115-0.048-0.275-0.011
c-0.16,0.037-0.246,0.102-0.264,0.11l0.327,0.109l-0.01,0.035c0,0,0.141,0.01,0.204,0.028c0.063,0.018,0.238,0.059,0.238,0.059
s-0.035-0.153-0.001-0.18c0.015-0.011,0.109-0.014,0.209,0.003c0.127,0.022,0.264,0.068,0.264,0.068s-0.02-0.059-0.012-0.228
c0.004-0.085,0.32,0.174,0.32,0.174s0.033-0.051,0.043-0.163c0.011-0.125,0.055-0.06,0.098-0.025
c0.028,0.024,0.255,0.384,0.255,0.384s0.08-0.224,0.102-0.276c0.022-0.052,0.258,0.425,0.258,0.425s0.064-0.01,0.137-0.051
c0.073-0.04,0.202-0.077,0.202-0.077s-0.058-0.308-0.092-0.422c-0.034-0.114-0.329-0.361-0.332-0.36
c-0.022,0.102-0.107,0.233-0.134,0.241c-0.031,0.01-0.161-0.07-0.254-0.143c-0.093-0.073-0.263-0.188-0.263-0.188
s0.02,0.111,0.031,0.162c0.01,0.051,0.033,0.148-0.031,0.126c-0.064-0.022-0.129-0.112-0.295-0.181
c-0.088-0.036-0.209-0.073-0.209-0.073s0.005,0.213-0.026,0.27c-0.023,0.043-0.037,0.05-0.064,0.035
c-0.044-0.044-0.182-0.142-0.355-0.17C440.719,71.885,440.563,71.907,440.558,71.907z M438.752,68.859
c0.016,0.046,0.06,0.122,0.069,0.16c0.035,0.146,0.019,0.32,0.093,0.444c0.037,0.057,0.094,0.088,0.113,0.104
c0.026,0.021,0.087,0.051,0.087,0.051s-0.033-0.118-0.014-0.24c-0.012-0.109-0.026-0.17-0.087-0.276
C438.952,68.996,438.882,68.898,438.752,68.859z M438.849,68.518l0.059,0.171l0.03,0.165c0,0,0.082,0.103,0.132,0.198
s0.09,0.187,0.09,0.187s0.036-0.02,0.064-0.126c0.028-0.106-0.017-0.203-0.079-0.294
C439.054,68.686,438.955,68.578,438.849,68.518z M438.949,68.184c0.024,0.064,0.063,0.127,0.09,0.211
c0.034,0.106,0.049,0.205,0.049,0.205l0.185,0.283c0,0,0.027-0.04,0.045-0.129c0.019-0.09,0.038-0.154-0.014-0.25
C439.245,68.396,439.136,68.231,438.949,68.184z M439.341,67.964c-0.049-0.053-0.181-0.1-0.181-0.1s0.038,0.108,0.06,0.198
c0.023,0.09,0.03,0.165,0.03,0.165s0.046,0.056,0.083,0.133c0.037,0.077,0.053,0.151,0.053,0.151s0.034-0.104,0.049-0.194
C439.471,68.102,439.412,68.028,439.341,67.964z M439.31,67.229c-0.108-0.053-0.082-0.192-0.082-0.192s-0.141,0.046-0.149,0.242
c-0.004,0.115,0.144,0.239,0.144,0.239s0.03-0.077,0.06-0.133c0.03-0.056,0.113-0.117,0.115-0.118
C439.395,67.268,439.386,67.267,439.31,67.229z M440.402,67.152c-0.047-0.194-0.219-0.366-0.219-0.366s0.029,0.121-0.016,0.237
c-0.025,0.062-0.103,0.123-0.147,0.161c0,0,0.202-0.055,0.283,0.064c0.018,0.026,0.032,0.089,0.032,0.089
S440.435,67.287,440.402,67.152z M440.862,67.42c0,0,0.138-0.135,0.119-0.248c-0.023-0.128-0.176-0.32-0.176-0.32
s0.017,0.124-0.011,0.234c-0.023,0.095-0.117,0.15-0.113,0.155c0.01,0.015,0.088,0.003,0.171,0.155
C440.856,67.405,440.862,67.42,440.862,67.42z M441.093,67.733c0.209-0.17,0.147-0.452,0.147-0.452s-0.053,0.135-0.178,0.22
c-0.112,0.076-0.203,0.103-0.203,0.103s0.039,0.062,0.03,0.132c-0.006,0.048-0.055,0.104-0.074,0.127
C440.791,67.888,440.973,67.833,441.093,67.733z M441.311,69.135c-0.043-0.087-0.126-0.187-0.181-0.264
c-0.057-0.081-0.083-0.138-0.083-0.138s-0.009,0.127,0.009,0.185c0.049,0.155,0.169,0.313,0.176,0.374
c-0.001,0.001-0.001,0.001-0.001,0.002c-0.023,0.043-0.081-0.041-0.156-0.129c-0.162-0.193-0.382-0.408-0.383-0.351
c-0.001,0.057,0.003,0.13,0.014,0.18c0.041,0.177,0.121,0.259,0.045,0.233c-0.076-0.027-0.145-0.066-0.204-0.107
c-0.126-0.087-0.203-0.22-0.212-0.229c-0.005,0.047,0.012,0.144,0.034,0.2c0.034,0.086,0.073,0.163,0.042,0.168
c-0.022,0.004-0.087-0.025-0.208-0.118c-0.046-0.035-0.119-0.126-0.159-0.19c-0.019,0.027-0.027,0.116-0.027,0.155
c0.001,0.083,0.029,0.175,0.011,0.192c-0.013,0.012-0.049-0.013-0.134-0.104c-0.031-0.034-0.106-0.174-0.117-0.18
c-0.011-0.007-0.023,0.113-0.027,0.139c-0.003,0.142,0.074,0.227,0.074,0.227s-0.063,0.017-0.086,0.052
c-0.028,0.013-0.06,0.098-0.108,0.05c0,0-0.115-0.372,0.256-1.206c0.051-0.114,0.119-0.244,0.185-0.355
c0.052-0.107,0.093-0.178,0.165-0.145c0.021,0.021-0.03,0.127-0.03,0.127s0.13,0.075,0.252,0.07
c0.121-0.005,0.215-0.055,0.276-0.103c0.061-0.048,0.067-0.112,0.043-0.181c-0.044-0.065-0.247,0.014-0.244-0.008
c0.003-0.022,0.179-0.058,0.216-0.149c0.023-0.073-0.014-0.138-0.069-0.178c-0.051-0.037-0.113-0.044-0.176-0.029
c-0.106,0.025-0.165,0.134-0.263,0.171c-0.007,0-0.018-0.008-0.015-0.015c0.026-0.055,0.043-0.108,0.003-0.159
c-0.062-0.076-0.146-0.067-0.233-0.052c-0.128,0.04-0.205,0.146-0.257,0.259l-0.011-0.004c-0.022-0.087-0.066-0.189-0.168-0.204
c-0.08-0.007-0.135,0.023-0.186,0.088c-0.062,0.069-0.078,0.179-0.038,0.262c0.033,0.069,0.091,0.157,0.179,0.16
c0.059-0.003,0.106-0.026,0.154-0.051c0.005,0.004,0.012,0.019,0.009,0.039c-0.013,0.094-0.103,0.332-0.123,0.422
c-0.096,0.424-0.171,0.649-0.227,0.87c-0.007,0.024-0.018,0.079,0,0.096c0.011,0.01,0.057,0.007,0.061,0.023
c-0.139,0.076-0.177,0.131-0.188,0.229c-0.017,0.084,0.015,0.179,0.085,0.243c0.062,0.046,0.431,0.102,0.474,0.104
c0.233,0.027,0.423,0.035,0.547,0.25c0.088,0.128,0.112,0.352,0.073,0.49c-0.06,0.168-0.122,0.267-0.189,0.334
c-0.067,0.067-0.172-0.008-0.24-0.018c-0.19-0.054-0.433-0.024-0.555,0.078c-0.277,0.232,0.015,0.767,0.015,0.767
c0.078,0.209,0.199,0.396,0.231,0.625c0.014,0.145-0.046,0.281-0.184,0.355c-0.113,0.061-0.188,0.071-0.283,0.007
c-0.067-0.054-0.115-0.1-0.082-0.192c0.085-0.233,0.17-0.295,0.147-0.557c-0.021-0.228-0.208-0.531-0.481-0.396
c-0.273,0.135-0.117,0.411-0.085,0.475c0.016-0.086,0.095-0.281,0.291-0.236c0.161,0.038,0.173,0.194-0.043,0.449
c-0.113,0.132-0.154,0.31-0.059,0.437c0.095,0.127,0.409,0.197,0.398,0.204c-0.153,0.064-0.285,0.074-0.332,0.192
c-0.047,0.117,0.047,0.257,0.082,0.341c0.074,0.118,0.107,0.28,0.015,0.391c-0.078,0.06-0.121,0.079-0.227,0.046
c-0.258-0.081-0.138-0.351-0.138-0.351c-0.317,0.22-0.095,0.516,0.008,0.589c0.084,0.067,0.232,0.093,0.343,0.078
c0.111-0.015,0.198-0.071,0.285-0.199c0.102-0.229-0.049-0.479-0.166-0.661c-0.153-0.277,0.337-0.303,0.49-0.335
c0.154-0.032,0.268-0.234,0.285-0.352c0.068-0.484-0.331-0.742-0.32-1.216c0.014-0.101,0.064-0.183,0.136-0.227
c0.072-0.044,0.181-0.083,0.304-0.029c0.082,0.057,0.094,0.14,0.144,0.236c0.049,0.096,0.237,0.206,0.389,0.206
c0.102,0,0.23-0.013,0.23-0.013s0.017,0.028,0.035,0.09c0.019,0.062,0.027,0.116,0.027,0.116s0.153,0.049,0.279,0.132
c0.053-0.004,0.019-0.223,0.03-0.274c0.025-0.016,0.094,0.012,0.144,0.031c0.053,0.03,0.104,0.046,0.104,0.046
c0,0-0.011-0.097-0.038-0.151c-0.027-0.053-0.185-0.096-0.223-0.21c-0.041-0.181,0.324-0.655,0.38-0.901
C441.581,70.205,441.487,69.48,441.311,69.135z M441.799,68.533c-0.017-0.092-0.058-0.213-0.102-0.265
c0,0,0.009,0.037,0.007,0.109c-0.002,0.072-0.023,0.159-0.042,0.221c-0.022,0.069-0.018,0.196-0.018,0.196
s0.035-0.033,0.087-0.058c0.052-0.025,0.094-0.035,0.094-0.035S441.81,68.592,441.799,68.533z M442.055,68.448
c-0.017-0.074-0.045-0.139-0.113-0.191c-0.014,0.124-0.077,0.183-0.063,0.24c0.006,0.02,0.027,0.197,0.027,0.197
s0.035-0.01,0.072-0.009c0.036,0.001,0.058,0.013,0.058,0.013s0.001-0.017,0.015-0.035c0.014-0.018,0.032-0.043,0.032-0.043
S442.074,68.526,442.055,68.448z M442.332,68.215c-0.015-0.088-0.089-0.252-0.089-0.252s-0.042,0.156-0.065,0.232
c-0.029,0.095-0.068,0.172-0.068,0.172s0.007,0.025,0.022,0.092c0.015,0.067,0.017,0.121,0.017,0.121l0.192-0.129
C442.342,68.451,442.353,68.339,442.332,68.215z M442.597,68.015c-0.015-0.089-0.033-0.182-0.042-0.199
c-0.021,0.053-0.037,0.124-0.061,0.179c-0.04,0.088-0.084,0.152-0.084,0.152s0.009,0.045,0.019,0.118s0.004,0.108,0.004,0.108
l0.228-0.217C442.66,68.155,442.612,68.104,442.597,68.015z M442.704,67.357c-0.038-0.027-0.123-0.176-0.123-0.176
s-0.021,0.121,0.027,0.262c0.048,0.142,0.175,0.198,0.175,0.198c-0.005-0.029,0.008-0.08,0.029-0.116
c0.032-0.054,0.079-0.087,0.079-0.087S442.809,67.433,442.704,67.357z M443.87,67.281c-0.005-0.095-0.068-0.196-0.098-0.225
c-0.03-0.029-0.01,0.165-0.141,0.264c-0.095,0.072-0.112,0.084-0.112,0.084s0.068-0.029,0.145,0
c0.081,0.03,0.119,0.117,0.119,0.117l0.045-0.047C443.829,67.474,443.876,67.399,443.87,67.281z M443.718,67.695
c0.031-0.098-0.052-0.191-0.169-0.206c-0.094-0.012-0.209,0.026-0.303,0.153c-0.041-0.053-0.093-0.115-0.158-0.141
c-0.059-0.016-0.134-0.016-0.172,0.033c-0.051,0.055-0.026,0.147,0.011,0.203c0.036,0.055,0.103,0.085,0.161,0.118l0.003,0.01
c0,0-0.285,0.3-0.495,0.49c-0.209,0.189-0.489,0.32-0.46,0.424c0.018,0.04,0.032,0.094,0.018,0.141
c-0.035,0.013-0.054-0.145-0.208-0.125c-0.095,0.013-0.226,0.058-0.245,0.15c-0.041,0.198,0.152,0.305,0.257,0.597
c0.105,0.291,0.109,0.547-0.044,0.721c-0.098,0.111-0.291,0.195-0.291,0.195s-0.023,0.165-0.188,0.46
c-0.088,0.158-0.153,0.328-0.131,0.393c0.022,0.065,0.102,0.144,0.102,0.144s0.659-0.199,0.837-0.305
c0.314-0.187,0.501-0.488,0.608-0.571c0.175-0.129,0.431-0.184,0.445-0.19c-0.004-0.03-0.086-0.121-0.257-0.118
c-0.105,0.002-0.18,0.052-0.169,0.035c0.004-0.008,0.105-0.162,0.193-0.219c0.089-0.057,0.187-0.107,0.187-0.107
s-0.098-0.048-0.197-0.038c-0.099,0.009-0.21,0.052-0.21,0.052s0.052-0.134,0.116-0.233c0.064-0.099,0.223-0.15,0.223-0.15
s-0.101-0.029-0.225-0.021c-0.124,0.008-0.26,0.061-0.26,0.061s0.024-0.115,0.074-0.172c0.096-0.11,0.274-0.148,0.274-0.148
s-0.161-0.033-0.252-0.021c-0.091,0.012-0.129,0.03-0.227,0.08c0-0.001,0.001-0.003,0.001-0.003s0.017-0.097,0.057-0.169
c0.083-0.154,0.241-0.177,0.241-0.177s-0.185-0.099-0.361-0.029c-0.082,0.033-0.161,0.087-0.225,0.229
c-0.008,0.019-0.039-0.054-0.043-0.108c-0.042-0.204,0.339-0.493,0.539-0.663c0.215-0.181,0.44-0.356,0.529-0.405
c0.09-0.048,0.382-0.094,0.493-0.049c0.111,0.044,0.298,0.12,0.371,0.017c0.073-0.103,0.002-0.19,0.002-0.19
s-0.091,0.082-0.139,0.076l-0.004-0.007c0.034-0.091,0.062-0.222-0.028-0.301C443.906,67.531,443.749,67.636,443.718,67.695z
M444.247,67.183c-0.008-0.004-0.029,0.128-0.096,0.198c-0.061,0.065-0.119,0.128-0.119,0.128s0.052,0.007,0.089,0.073
c0.037,0.065,0.032,0.16,0.032,0.16s0.124-0.133,0.151-0.21C444.342,67.424,444.319,67.254,444.247,67.183z M444.242,67.778
c0,0,0.013,0.03,0.026,0.102c0.013,0.072-0.002,0.109-0.002,0.109s0.204-0.009,0.34-0.194c0.065-0.088,0.063-0.219,0.063-0.219
S444.534,67.77,444.242,67.778z M440.84,72.883c-0.012-0.001-0.017-0.003-0.017-0.003S440.83,72.881,440.84,72.883z
M441.146,75.373c0.023,0.032,0.015,0.208-0.098,0.224c-0.164,0.024-0.448-0.344-0.363-0.342c0.041,0.001,0.022,0.054,0.108,0.119
l-0.023,0.013c0.147,0.118,0.251-0.002,0.264-0.03l-0.15-0.037l-0.043,0.025c-0.042-0.058,0.002-0.086,0.034-0.099
C440.93,75.224,441.123,75.342,441.146,75.373z M441.105,75.381l-0.022-0.007c-0.027,0.06-0.053,0.074-0.156,0.115
c0.078,0.028,0.171,0.052,0.188-0.013C441.124,75.446,441.135,75.408,441.105,75.381z M441.654,75.827
c-0.104-0.014-0.189-0.076-0.279-0.113c-0.018,0.018,0.005,0.038,0.018,0.052c0.072,0.066,0.157,0.108,0.257,0.094l0.013-0.019
L441.654,75.827"/>
</g>
</g>
<g>
<path fill-rule="evenodd" clip-rule="evenodd" fill="#FB0F0C" d="M132.747,1.276c23.528,0,36.658,13.806,34.091,36.676
c-2.518,22.431-14.655,37.124-42.873,37.124H78.929L90.242,1.276 M124.635,17.046c5.757,0,9.229,0.9,11.868,3.07
c4.387,3.611,6.172,10.366,5.034,17.838c-1.675,10.953-6.304,20.887-21.844,20.887h-13.472l6.402-41.795H124.635z"/>
<path fill="#FB0F0C" d="M206.338,1.276l-6.345,41.387c-1.417,9.25,3.686,16.149,13.578,16.149c8.43,0,15.525-5.671,17.132-16.149
l6.349-41.387h24.895l-5.963,38.883c-3.285,21.434-15.236,36.187-44.185,36.187c-19.233,0-29.904-6.96-34.504-15.926
c-3.446-6.709-3.599-14.603-2.583-21.224l5.813-37.92"/>
<path fill="#FB0F0C" d="M72.267,55.425c-3.716,1.152-12.233,2.13-20.71,2.13c-19.125,0-25.743-8.993-25.038-19.604
c0.787-11.822,10.992-20.174,30.824-20.174c7.999,0,16.555,2.051,18.63,2.699l2.672-17.345C74.965,2.102,64.479,0,50.115,0
C14.846,0,2.778,19.496,0.483,33.764c-3.228,20.066,9.574,42.584,43.57,42.584c10.832,0,21.902-1.604,25.482-3.267"/>
</g>
</svg>
