<?xml version="1.0" encoding="UTF-8" standalone="no"?>
<!-- Created with Inkscape (http://www.inkscape.org/) -->
<svg xmlns:svg="http://www.w3.org/2000/svg" xmlns="http://www.w3.org/2000/svg" version="1.0" width="708.66144" height="329.76831" id="svg8243">
  <defs id="defs8245">
    <clipPath id="clp11">
<path d="M 78.7,244.05 L 166.12,244.05 L 166.12,203.37 L 78.7,203.37 L 78.7,244.05 z" id="path6042"/>

</clipPath>
    <clipPath id="clp10">
<path d="M 78.7,244.05 L 166.12,244.05 L 166.12,203.37 L 78.7,203.37 L 78.7,244.05 z" id="path6036"/>

</clipPath>
    <clipPath id="clp9">
<path d="M 78.7,203.37 L 166.12,203.37 L 166.12,244.05 L 78.7,244.05 L 78.7,203.37 z" id="path6030"/>

</clipPath>
  </defs>
  <g transform="translate(-411.172, 88.9702)" id="layer1">
    <g transform="matrix(8.1064, 0, 0, -8.1064, -226.802, 1889.4)" id="q18" style="font-size: 12px; letter-spacing: 0pt; word-spacing: 0pt; fill: rgb(255, 255, 255); stroke: none; stroke-width: 1; stroke-linecap: butt; stroke-linejoin: miter; stroke-miterlimit: 4; stroke-dasharray: none; font-family: fnt0;">
<clipPath id="clipPath8260">
<path d="M 78.7,203.37 L 166.12,203.37 L 166.12,244.05 L 78.7,244.05 L 78.7,203.37 z" id="path8262"/>

</clipPath>

<g clip-path="url(#clp9)" id="g6032">
<g id="q19" style="fill: none; stroke: none;">
<clipPath id="clipPath8266">
<path d="M 78.7,244.05 L 166.12,244.05 L 166.12,203.37 L 78.7,203.37 L 78.7,244.05 z" id="path8268"/>

</clipPath>

<g clip-path="url(#clp10)" id="g6038">
<g id="q20" style="fill: none; stroke: none;">
<clipPath id="clipPath8272">
<path d="M 78.7,244.05 L 166.12,244.05 L 166.12,203.37 L 78.7,203.37 L 78.7,244.05 z" id="path8274"/>

</clipPath>

<g clip-path="url(#clp11)" id="g6044">
<path d="M 78.7,234.92 L 153.19,234.92 L 153.19,203.37 L 78.7,203.37 L 78.7,234.92 z" id="path6046" style="fill: rgb(0, 60, 143); fill-rule: nonzero; stroke: none;"/>

<path d="M 146.81,242.09 C 146.79,241.99 146.36,239.57 146.57,237.67 C 146.57,237.67 146.6,237.25 146.6,237.25 C 146.67,236.26 146.8,234.62 147.67,232.87 L 150.56,234.31 C 149.96,235.49 149.88,236.65 149.81,237.49 L 149.77,238.01 C 149.74,238.25 149.73,238.51 149.73,238.78 C 149.73,239.08 149.75,239.38 149.77,239.68 C 149.83,239.65 149.9,239.63 149.96,239.6 L 151.18,242.58 C 150.66,242.8 149.34,243.31 148.6,243.41 L 147.08,243.6 L 146.81,242.09" id="path6048" style="fill: rgb(253, 204, 0); fill-rule: nonzero; stroke: none;"/>

<path d="M 142.59,234 L 141.66,232.79 L 142.83,231.8 C 142.91,231.73 144.79,230.15 146.54,229.38 L 146.92,229.2 C 147.81,228.77 149.3,228.05 151.25,227.94 L 151.44,231.15 C 150.12,231.23 149.08,231.73 148.32,232.1 L 147.85,232.32 C 147.39,232.53 146.87,232.84 146.4,233.15 C 146.45,233.2 146.51,233.24 146.56,233.28 L 144.59,235.83 C 144.14,235.48 143.04,234.6 142.59,234" id="path6050" style="fill: rgb(253, 204, 0); fill-rule: nonzero; stroke: none;"/>

<path d="M 152.07,227.69 L 151.65,227.39 C 151.24,227.1 150.72,226.81 150.2,226.56 C 150.19,226.63 150.18,226.7 150.17,226.77 L 146.98,226.33 C 147.06,225.77 147.27,224.37 147.56,223.68 L 148.15,222.27 L 149.59,222.79 C 149.69,222.83 152,223.67 153.54,224.79 L 153.89,225.03 C 154.71,225.59 156.07,226.52 157.15,228.15 L 154.46,229.92 C 153.73,228.82 152.77,228.17 152.07,227.69" id="path6052" style="fill: rgb(253, 204, 0); fill-rule: nonzero; stroke: none;"/>

<path d="M 157.02,232.15 C 157.61,230.97 157.7,229.81 157.76,228.97 L 157.81,228.45 C 157.83,228.21 157.84,227.95 157.84,227.68 C 157.84,227.38 157.83,227.08 157.81,226.78 C 157.74,226.81 157.67,226.83 157.61,226.86 L 156.39,223.88 C 156.92,223.66 158.23,223.15 158.98,223.05 L 160.49,222.87 L 160.76,224.37 C 160.78,224.47 161.21,226.89 161.01,228.79 L 160.97,229.21 C 160.9,230.2 160.77,231.84 159.9,233.59 L 157.02,232.15" id="path6054" style="fill: rgb(253, 204, 0); fill-rule: nonzero; stroke: none;"/>

<path d="M 156.35,235.45 C 157.66,235.37 158.71,234.87 159.47,234.5 L 159.94,234.28 C 160.4,234.08 160.91,233.77 161.39,233.45 C 161.33,233.4 161.28,233.36 161.22,233.32 L 163.19,230.77 C 163.65,231.12 164.75,232 165.2,232.6 L 166.12,233.81 L 164.96,234.8 C 164.88,234.87 162.99,236.45 161.25,237.22 L 160.87,237.4 C 159.98,237.83 158.49,238.55 156.54,238.66 L 156.35,235.45" id="path6056" style="fill: rgb(253, 204, 0); fill-rule: nonzero; stroke: none;"/>

<path d="M 157.81,243.53 C 157.71,243.5 155.4,242.66 153.85,241.54 C 153.85,241.54 153.51,241.29 153.51,241.29 C 152.69,240.74 151.33,239.81 150.25,238.17 L 152.94,236.4 C 153.67,237.5 154.62,238.16 155.32,238.63 L 155.75,238.93 C 156.16,239.23 156.68,239.51 157.19,239.77 C 157.2,239.7 157.21,239.63 157.22,239.56 L 160.42,239.99 C 160.34,240.56 160.13,241.95 159.84,242.64 L 159.24,244.05 L 157.81,243.53" id="path6058" style="fill: rgb(253, 204, 0); fill-rule: nonzero; stroke: none;"/>

<path d="M 90.486,209.7 C 89.454,209.7 88.29,209.86 87.324,210.06 L 87.491,214.41 C 88.423,214.04 89.654,213.85 90.919,213.85 C 92.15,213.85 92.916,214.41 92.916,215.26 C 92.916,217.32 86.692,216.01 86.692,221.63 C 86.692,225.1 89.288,227.45 94.347,227.45 C 95.212,227.45 96.377,227.35 97.309,227.19 L 97.176,223.04 C 96.277,223.3 95.146,223.46 94.147,223.46 C 92.749,223.46 92.184,222.94 92.184,222.15 C 92.184,220.29 98.507,221.01 98.507,215.88 C 98.507,212.25 95.711,209.7 90.486,209.7" id="path6060" style="fill: rgb(255, 255, 255); fill-rule: nonzero; stroke: none;"/>

<path d="M 105.98,209.7 C 104.95,209.7 103.79,209.86 102.82,210.06 L 102.99,214.41 C 103.92,214.04 105.15,213.85 106.42,213.85 C 107.65,213.85 108.41,214.41 108.41,215.26 C 108.41,217.32 102.19,216.01 102.19,221.63 C 102.19,225.1 104.79,227.45 109.84,227.45 C 110.71,227.45 111.87,227.35 112.81,227.19 L 112.67,223.04 C 111.77,223.3 110.64,223.46 109.64,223.46 C 108.25,223.46 107.68,222.94 107.68,222.15 C 107.68,220.29 114,221.01 114,215.88 C 114,212.25 111.21,209.7 105.98,209.7" id="path6062" style="fill: rgb(255, 255, 255); fill-rule: nonzero; stroke: none;"/>

<path d="M 137.68,210.09 L 131.68,210.09 L 129.78,217.35 C 129.51,218.3 129.2,219.93 128.99,221.07 L 128.92,221.07 C 128.74,219.96 128.4,218.49 128.13,217.48 L 126.17,210.09 L 120.63,210.09 L 115.95,227.09 L 121.12,227.09 L 123.26,219.24 C 123.54,218.23 123.78,217.22 123.93,216.17 L 124,216.17 C 124.15,217.12 124.42,218.36 124.64,219.18 L 126.78,227.09 L 131.77,227.09 L 133.91,219.41 C 134.13,218.66 134.37,217.41 134.62,216.17 L 134.68,216.17 C 134.86,217.25 135.17,218.66 135.41,219.54 L 137.47,227.09 L 142.24,227.09 L 137.68,210.09" id="path6064" style="fill: rgb(255, 255, 255); fill-rule: nonzero; stroke: none;"/>

</g>

</g>

</g>

</g>

</g>

</g>
  </g>
</svg>